  0
SECTION
  2
HEADER
  9
$ACADVER
  1
AC1014
  9
$HANDSEED
  5
FFFF
  9
$MEASUREMENT
 70
     1
  0
ENDSEC
  0
SECTION
  2
TABLES
  0
TABLE
  2
VPORT
  5
8
330
0
100
AcDbSymbolTable
 70
     4
  0
VPORT
  5
2E
330
8
100
AcDbSymbolTableRecord
100
AcDbViewportTableRecord
  2
*ACTIVE
 70
     0
 10
0.0
 20
0.0
 11
1.0
 21
1.0
 12
210.0
 22
148.5
 13
0.0
 23
0.0
 14
10.0
 24
10.0
 15
10.0
 25
10.0
 16
0.0
 26
0.0
 36
1.0
 17
0.0
 27
0.0
 37
0.0
 40
341.0
 41
1.24
 42
50.0
 43
0.0
 44
0.0
 50
0.0
 51
0.0
 71
     0
 72
   100
 73
     1
 74
     3
 75
     0
 76
     0
 77
     0
 78
     0
  0
ENDTAB
  0
TABLE
  2
LTYPE
  5
5
330
0
100
AcDbSymbolTable
 70
     1
  0
LTYPE
  5
14
330
5
100
AcDbSymbolTableRecord
100
AcDbLinetypeTableRecord
  2
BYBLOCK
 70
     0
  3

 72
    65
 73
     0
 40
0.0
  0
LTYPE
  5
15
330
5
100
AcDbSymbolTableRecord
100
AcDbLinetypeTableRecord
  2
BYLAYER
 70
     0
  3

 72
    65
 73
     0
 40
0.0
  0
LTYPE
  5
16
330
5
100
AcDbSymbolTableRecord
100
AcDbLinetypeTableRecord
  2
CONTINUOUS
 70
     0
  3
Solid line
 72
    65
 73
     0
 40
0.0
  0
ENDTAB
  0
TABLE
  2
LAYER
  5
2
100
AcDbSymbolTable
 70
2
  0
LAYER
  5
50
100
AcDbSymbolTableRecord
100
AcDbLayerTableRecord
  2
0
 70
0
  6
CONTINUOUS
  0
LAYER
  5
51
100
AcDbSymbolTableRecord
100
AcDbLayerTableRecord
  2
Camada_1
 70
0
  6
CONTINUOUS
  0
ENDTAB
  0
TABLE
  2
STYLE
  5
3
330
0
100
AcDbSymbolTable
 70
     1
  0
STYLE
  5
11
330
3
100
AcDbSymbolTableRecord
100
AcDbTextStyleTableRecord
  2
STANDARD
 70
     0
 40
0.0
 41
1.0
 50
0.0
 71
     0
 42
2.5
  3
txt
  4

  0
ENDTAB
  0
TABLE
  2
VIEW
  5
6
330
0
100
AcDbSymbolTable
 70
     0
  0
ENDTAB
  0
TABLE
  2
UCS
  5
7
330
0
100
AcDbSymbolTable
 70
     0
  0
ENDTAB
  0
TABLE
  2
APPID
  5
9
330
0
100
AcDbSymbolTable
 70
     2
  0
APPID
  5
12
330
9
100
AcDbSymbolTableRecord
100
AcDbRegAppTableRecord
  2
ACAD
 70
     0
  0
ENDTAB
  0
TABLE
  2
DIMSTYLE
  5
A
330
0
100
AcDbSymbolTable
 70
     1
  0
DIMSTYLE
105
27
330
A
100
AcDbSymbolTableRecord
100
AcDbDimStyleTableRecord
  2
ISO-25
 70
     0
  3

  4

  5

  6

  7

 40
1.0
 41
2.5
 42
0.625
 43
3.75
 44
1.25
 45
0.0
 46
0.0
 47
0.0
 48
0.0
140
2.5
141
2.5
142
0.0
143
0.03937007874016
144
1.0
145
0.0
146
1.0
147
0.625
 71
     0
 72
     0
 73
     0
 74
     0
 75
     0
 76
     0
 77
     1
 78
     8
170
     0
171
     3
172
     1
173
     0
174
     0
175
     0
176
     0
177
     0
178
     0
270
     2
271
     2
272
     2
273
     2
274
     3
340
11
275
     0
280
     0
281
     0
282
     0
283
     0
284
     8
285
     0
286
     0
287
     3
288
     0
  0
ENDTAB
  0
TABLE
  2
BLOCK_RECORD
  5
1
330
0
100
AcDbSymbolTable
 70
     1
  0
BLOCK_RECORD
  5
1F
330
1
100
AcDbSymbolTableRecord
100
AcDbBlockTableRecord
  2
*MODEL_SPACE
  0
BLOCK_RECORD
  5
1B
330
1
100
AcDbSymbolTableRecord
100
AcDbBlockTableRecord
  2
*PAPER_SPACE
  0
ENDTAB
  0
ENDSEC
  0
SECTION
  2
BLOCKS
  0
BLOCK
  5
20
330
1F
100
AcDbEntity
  8
0
100
AcDbBlockBegin
  2
*MODEL_SPACE
 70
     0
 10
0.0
 20
0.0
 30
0.0
  3
*MODEL_SPACE
  1

  0
ENDBLK
  5
21
330
1F
100
AcDbEntity
  8
0
100
AcDbBlockEnd
  0
BLOCK
  5
1C
330
1B
100
AcDbEntity
 67
     1
  8
0
100
AcDbBlockBegin
  2
*PAPER_SPACE
  1

  0
ENDBLK
  5
1D
330
1B
100
AcDbEntity
 67
     1
  8
0
100
AcDbBlockEnd
  0
ENDSEC
  0
SECTION
  2
ENTITIES
  0
SPLINE
  5
100
100
AcDbEntity
  8
Camada_1
 62
7
100
AcDbSpline
 70
8
 71
3
 72
8
 73
4
 74
0
 40
0
 40
0
 40
0
 40
0
 40
1
 40
1
 40
1
 40
1
 10
82.690225
 20
189.611810
 30
0.0
 10
81.199332
 20
189.967930
 30
0.0
 10
80.318517
 20
190.496780
 30
0.0
 10
79.254289
 20
191.674750
 30
0.0
  0
SPLINE
  5
101
100
AcDbEntity
  8
Camada_1
 62
7
100
AcDbSpline
 70
8
 71
3
 72
8
 73
4
 74
0
 40
0
 40
0
 40
0
 40
0
 40
1
 40
1
 40
1
 40
1
 10
79.254289
 20
191.674750
 30
0.0
 10
77.478069
 20
193.640810
 30
0.0
 10
77.473303
 20
193.692240
 30
0.0
 10
77.473303
 20
210.889943
 30
0.0
  0
SPLINE
  5
102
100
AcDbEntity
  8
Camada_1
 62
7
100
AcDbSpline
 70
8
 71
3
 72
8
 73
4
 74
0
 40
0
 40
0
 40
0
 40
0
 40
1
 40
1
 40
1
 40
1
 10
77.473303
 20
210.889943
 30
0.0
 10
77.473303
 20
228.260853
 30
0.0
 10
77.462773
 20
228.153173
 30
0.0
 10
79.363973
 20
230.215733
 30
0.0
  0
SPLINE
  5
103
100
AcDbEntity
  8
Camada_1
 62
7
100
AcDbSpline
 70
8
 71
3
 72
8
 73
4
 74
0
 40
0
 40
0
 40
0
 40
0
 40
1
 40
1
 40
1
 40
1
 10
79.363973
 20
230.215733
 30
0.0
 10
81.424411
 20
232.451053
 30
0.0
 10
79.705138
 20
232.321193
 30
0.0
 10
107.238930
 20
232.321193
 30
0.0
  0
SPLINE
  5
104
100
AcDbEntity
  8
Camada_1
 62
7
100
AcDbSpline
 70
8
 71
3
 72
8
 73
4
 74
0
 40
0
 40
0
 40
0
 40
0
 40
1
 40
1
 40
1
 40
1
 10
107.238930
 20
232.321193
 30
0.0
 10
134.772720
 20
232.321193
 30
0.0
 10
133.053450
 20
232.451053
 30
0.0
 10
135.113880
 20
230.215733
 30
0.0
  0
SPLINE
  5
105
100
AcDbEntity
  8
Camada_1
 62
7
100
AcDbSpline
 70
8
 71
3
 72
8
 73
4
 74
0
 40
0
 40
0
 40
0
 40
0
 40
1
 40
1
 40
1
 40
1
 10
135.113880
 20
230.215733
 30
0.0
 10
137.015090
 20
228.153173
 30
0.0
 10
137.004550
 20
228.260853
 30
0.0
 10
137.004550
 20
210.889943
 30
0.0
  0
SPLINE
  5
106
100
AcDbEntity
  8
Camada_1
 62
7
100
AcDbSpline
 70
8
 71
3
 72
8
 73
4
 74
0
 40
0
 40
0
 40
0
 40
0
 40
1
 40
1
 40
1
 40
1
 10
137.004550
 20
210.889943
 30
0.0
 10
137.004550
 20
193.663670
 30
0.0
 10
137.002550
 20
193.647110
 30
0.0
 10
135.203680
 20
191.649490
 30
0.0
  0
SPLINE
  5
107
100
AcDbEntity
  8
Camada_1
 62
7
100
AcDbSpline
 70
8
 71
3
 72
8
 73
4
 74
0
 40
0
 40
0
 40
0
 40
0
 40
1
 40
1
 40
1
 40
1
 10
135.203680
 20
191.649490
 30
0.0
 10
134.666190
 20
191.052760
 30
0.0
 10
133.690650
 20
190.315720
 30
0.0
 10
133.035800
 20
190.011610
 30
0.0
  0
SPLINE
  5
108
100
AcDbEntity
  8
Camada_1
 62
7
100
AcDbSpline
 70
8
 71
3
 72
8
 73
4
 74
0
 40
0
 40
0
 40
0
 40
0
 40
1
 40
1
 40
1
 40
1
 10
133.035800
 20
190.011610
 30
0.0
 10
131.857880
 20
189.464590
 30
0.0
 10
131.588260
 20
189.458230
 30
0.0
 10
107.768090
 20
189.415720
 30
0.0
  0
SPLINE
  5
109
100
AcDbEntity
  8
Camada_1
 62
7
100
AcDbSpline
 70
8
 71
3
 72
8
 73
4
 74
0
 40
0
 40
0
 40
0
 40
0
 40
1
 40
1
 40
1
 40
1
 10
107.768090
 20
189.415720
 30
0.0
 10
94.175779
 20
189.391420
 30
0.0
 10
83.255202
 20
189.476820
 30
0.0
 10
82.690225
 20
189.611810
 30
0.0
  0
SPLINE
  5
10a
100
AcDbEntity
  8
Camada_1
 62
7
100
AcDbSpline
 70
8
 71
3
 72
8
 73
4
 74
0
 40
0
 40
0
 40
0
 40
0
 40
1
 40
1
 40
1
 40
1
 10
114.647260
 20
198.057293
 30
0.0
 10
118.430800
 20
200.915753
 30
0.0
 10
123.695610
 20
204.888543
 30
0.0
 10
126.346830
 20
206.885713
 30
0.0
  0
SPLINE
  5
10b
100
AcDbEntity
  8
Camada_1
 62
7
100
AcDbSpline
 70
8
 71
3
 72
8
 73
4
 74
0
 40
0
 40
0
 40
0
 40
0
 40
1
 40
1
 40
1
 40
1
 10
126.346830
 20
206.885713
 30
0.0
 10
128.998050
 20
208.882873
 30
0.0
 10
131.232080
 20
210.621843
 30
0.0
 10
131.311340
 20
210.750083
 30
0.0
  0
SPLINE
  5
10c
100
AcDbEntity
  8
Camada_1
 62
7
100
AcDbSpline
 70
8
 71
3
 72
8
 73
4
 74
0
 40
0
 40
0
 40
0
 40
0
 40
1
 40
1
 40
1
 40
1
 10
131.311340
 20
210.750083
 30
0.0
 10
131.390640
 20
210.878323
 30
0.0
 10
130.398900
 20
211.795693
 30
0.0
 10
129.107570
 20
212.788673
 30
0.0
  0
SPLINE
  5
10d
100
AcDbEntity
  8
Camada_1
 62
7
100
AcDbSpline
 70
8
 71
3
 72
8
 73
4
 74
0
 40
0
 40
0
 40
0
 40
0
 40
1
 40
1
 40
1
 40
1
 10
129.107570
 20
212.788673
 30
0.0
 10
125.540310
 20
215.531763
 30
0.0
 10
107.810160
 20
228.891043
 30
0.0
 10
107.465700
 20
229.095333
 30
0.0
  0
SPLINE
  5
10e
100
AcDbEntity
  8
Camada_1
 62
7
100
AcDbSpline
 70
8
 71
3
 72
8
 73
4
 74
0
 40
0
 40
0
 40
0
 40
0
 40
1
 40
1
 40
1
 40
1
 10
107.465700
 20
229.095333
 30
0.0
 10
107.295200
 20
229.196453
 30
0.0
 10
104.929430
 20
227.583793
 30
0.0
 10
102.041740
 20
225.398023
 30
0.0
  0
SPLINE
  5
10f
100
AcDbEntity
  8
Camada_1
 62
7
100
AcDbSpline
 70
8
 71
3
 72
8
 73
4
 74
0
 40
0
 40
0
 40
0
 40
0
 40
1
 40
1
 40
1
 40
1
 10
102.041740
 20
225.398023
 30
0.0
 10
99.224880
 20
223.265863
 30
0.0
 10
93.859095
 20
219.214943
 30
0.0
 10
90.117771
 20
216.395993
 30
0.0
  0
SPLINE
  5
110
100
AcDbEntity
  8
Camada_1
 62
7
100
AcDbSpline
 70
8
 71
3
 72
8
 73
4
 74
0
 40
0
 40
0
 40
0
 40
0
 40
1
 40
1
 40
1
 40
1
 10
90.117771
 20
216.395993
 30
0.0
 10
86.376447
 20
213.577043
 30
0.0
 10
83.248656
 20
211.162693
 30
0.0
 10
83.167124
 20
211.030773
 30
0.0
  0
SPLINE
  5
111
100
AcDbEntity
  8
Camada_1
 62
7
100
AcDbSpline
 70
8
 71
3
 72
8
 73
4
 74
0
 40
0
 40
0
 40
0
 40
0
 40
1
 40
1
 40
1
 40
1
 10
83.167124
 20
211.030773
 30
0.0
 10
83.004500
 20
210.767643
 30
0.0
 10
83.547590
 20
210.342343
 30
0.0
 10
97.544660
 20
199.771603
 30
0.0
  0
SPLINE
  5
112
100
AcDbEntity
  8
Camada_1
 62
7
100
AcDbSpline
 70
8
 71
3
 72
8
 73
4
 74
0
 40
0
 40
0
 40
0
 40
0
 40
1
 40
1
 40
1
 40
1
 10
97.544660
 20
199.771603
 30
0.0
 10
102.957180
 20
195.684010
 30
0.0
 10
107.296880
 20
192.583610
 30
0.0
 10
107.466540
 20
192.683150
 30
0.0
  0
SPLINE
  5
113
100
AcDbEntity
  8
Camada_1
 62
7
100
AcDbSpline
 70
8
 71
3
 72
8
 73
4
 74
0
 40
0
 40
0
 40
0
 40
0
 40
1
 40
1
 40
1
 40
1
 10
107.466540
 20
192.683150
 30
0.0
 10
107.632400
 20
192.780450
 30
0.0
 10
110.863720
 20
195.198820
 30
0.0
 10
114.647260
 20
198.057293
 30
0.0
  0
LWPOLYLINE
  5
114
100
AcDbEntity
  8
Camada_1
 62
7
100
AcDbPolyline
 90
1
 70
1
 10
82.690225
 20
189.611810
 30
0.0
  0
SPLINE
  5
115
100
AcDbEntity
  8
Camada_1
 62
7
100
AcDbSpline
 70
8
 71
3
 72
8
 73
4
 74
0
 40
0
 40
0
 40
0
 40
0
 40
1
 40
1
 40
1
 40
1
 10
103.746380
 20
200.916783
 30
0.0
 10
99.406090
 20
202.463173
 30
0.0
 10
96.551570
 20
206.538863
 30
0.0
 10
96.529770
 20
211.220663
 30
0.0
  0
LWPOLYLINE
  5
116
100
AcDbEntity
  8
Camada_1
 62
7
100
AcDbPolyline
 90
1
 70
1
 10
114.647260
 20
198.057293
 30
0.0
  0
SPLINE
  5
117
100
AcDbEntity
  8
Camada_1
 62
7
100
AcDbSpline
 70
8
 71
3
 72
8
 73
4
 74
0
 40
0
 40
0
 40
0
 40
0
 40
1
 40
1
 40
1
 40
1
 10
98.387010
 20
212.609733
 30
0.0
 10
101.499300
 20
212.609733
 30
0.0
 10
105.331460
 20
211.664893
 30
0.0
 10
109.119090
 20
209.963693
 30
0.0
  0
SPLINE
  5
118
100
AcDbEntity
  8
Camada_1
 62
7
100
AcDbSpline
 70
8
 71
3
 72
8
 73
4
 74
0
 40
0
 40
0
 40
0
 40
0
 40
1
 40
1
 40
1
 40
1
 10
109.119090
 20
209.963693
 30
0.0
 10
111.047900
 20
209.097383
 30
0.0
 10
114.346730
 20
206.900333
 30
0.0
 10
115.412260
 20
205.772383
 30
0.0
  0
LWPOLYLINE
  5
119
100
AcDbEntity
  8
Camada_1
 62
7
100
AcDbPolyline
 90
3
 70
0
 10
96.529770
 20
211.220663
 30
0.0
 10
96.523770
 20
212.609733
 30
0.0
 10
98.387010
 20
212.609733
 30
0.0
  0
SPLINE
  5
11a
100
AcDbEntity
  8
Camada_1
 62
7
100
AcDbSpline
 70
8
 71
3
 72
8
 73
4
 74
0
 40
0
 40
0
 40
0
 40
0
 40
1
 40
1
 40
1
 40
1
 10
114.699880
 20
203.521153
 30
0.0
 10
112.500140
 20
201.373513
 30
0.0
 10
110.738170
 20
200.623593
 30
0.0
 10
107.636270
 20
200.514753
 30
0.0
  0
SPLINE
  5
11b
100
AcDbEntity
  8
Camada_1
 62
7
100
AcDbSpline
 70
8
 71
3
 72
8
 73
4
 74
0
 40
0
 40
0
 40
0
 40
0
 40
1
 40
1
 40
1
 40
1
 10
107.636270
 20
200.514753
 30
0.0
 10
105.690610
 20
200.446453
 30
0.0
 10
104.811880
 20
200.537353
 30
0.0
 10
103.746850
 20
200.916783
 30
0.0
  0
LWPOLYLINE
  5
11c
100
AcDbEntity
  8
Camada_1
 62
7
100
AcDbPolyline
 90
3
 70
0
 10
115.412260
 20
205.772383
 30
0.0
 10
116.176780
 20
204.963073
 30
0.0
 10
114.699880
 20
203.521153
 30
0.0
  0
SPLINE
  5
11d
100
AcDbEntity
  8
Camada_1
 62
7
100
AcDbSpline
 70
8
 71
3
 72
8
 73
4
 74
0
 40
0
 40
0
 40
0
 40
0
 40
1
 40
1
 40
1
 40
1
 10
108.958720
 20
203.084733
 30
0.0
 10
108.958720
 20
203.815483
 30
0.0
 10
108.885220
 20
203.878483
 30
0.0
 10
108.032680
 20
203.878483
 30
0.0
  0
SPLINE
  5
11e
100
AcDbEntity
  8
Camada_1
 62
7
100
AcDbSpline
 70
8
 71
3
 72
8
 73
4
 74
0
 40
0
 40
0
 40
0
 40
0
 40
1
 40
1
 40
1
 40
1
 10
108.032680
 20
203.878483
 30
0.0
 10
107.180130
 20
203.878483
 30
0.0
 10
107.106640
 20
203.815483
 30
0.0
 10
107.106640
 20
203.084733
 30
0.0
  0
SPLINE
  5
11f
100
AcDbEntity
  8
Camada_1
 62
7
100
AcDbSpline
 70
8
 71
3
 72
8
 73
4
 74
0
 40
0
 40
0
 40
0
 40
0
 40
1
 40
1
 40
1
 40
1
 10
107.106640
 20
203.084733
 30
0.0
 10
107.106640
 20
202.353973
 30
0.0
 10
107.180140
 20
202.290983
 30
0.0
 10
108.032680
 20
202.290983
 30
0.0
  0
SPLINE
  5
120
100
AcDbEntity
  8
Camada_1
 62
7
100
AcDbSpline
 70
8
 71
3
 72
8
 73
4
 74
0
 40
0
 40
0
 40
0
 40
0
 40
1
 40
1
 40
1
 40
1
 10
108.032680
 20
202.290983
 30
0.0
 10
108.885220
 20
202.290983
 30
0.0
 10
108.958720
 20
202.353983
 30
0.0
 10
108.958720
 20
203.084733
 30
0.0
  0
LWPOLYLINE
  5
121
100
AcDbEntity
  8
Camada_1
 62
7
100
AcDbPolyline
 90
2
 70
0
 10
103.746850
 20
200.916783
 30
0.0
 10
103.746380
 20
200.916783
 30
0.0
  0
SPLINE
  5
122
100
AcDbEntity
  8
Camada_1
 62
7
100
AcDbSpline
 70
8
 71
3
 72
8
 73
4
 74
0
 40
0
 40
0
 40
0
 40
0
 40
1
 40
1
 40
1
 40
1
 10
113.721220
 20
204.672233
 30
0.0
 10
113.721220
 20
205.377783
 30
0.0
 10
113.633020
 20
205.465983
 30
0.0
 10
112.927470
 20
205.465983
 30
0.0
  0
SPLINE
  5
123
100
AcDbEntity
  8
Camada_1
 62
7
100
AcDbSpline
 70
8
 71
3
 72
8
 73
4
 74
0
 40
0
 40
0
 40
0
 40
0
 40
1
 40
1
 40
1
 40
1
 10
112.927470
 20
205.465983
 30
0.0
 10
112.221910
 20
205.465983
 30
0.0
 10
112.133720
 20
205.377783
 30
0.0
 10
112.133720
 20
204.672233
 30
0.0
  0
SPLINE
  5
124
100
AcDbEntity
  8
Camada_1
 62
7
100
AcDbSpline
 70
8
 71
3
 72
8
 73
4
 74
0
 40
0
 40
0
 40
0
 40
0
 40
1
 40
1
 40
1
 40
1
 10
112.133720
 20
204.672233
 30
0.0
 10
112.133720
 20
203.966673
 30
0.0
 10
112.221920
 20
203.878483
 30
0.0
 10
112.927470
 20
203.878483
 30
0.0
  0
SPLINE
  5
125
100
AcDbEntity
  8
Camada_1
 62
7
100
AcDbSpline
 70
8
 71
3
 72
8
 73
4
 74
0
 40
0
 40
0
 40
0
 40
0
 40
1
 40
1
 40
1
 40
1
 10
112.927470
 20
203.878483
 30
0.0
 10
113.633030
 20
203.878483
 30
0.0
 10
113.721220
 20
203.966683
 30
0.0
 10
113.721220
 20
204.672233
 30
0.0
  0
LWPOLYLINE
  5
126
100
AcDbEntity
  8
Camada_1
 62
7
100
AcDbPolyline
 90
1
 70
1
 10
108.958720
 20
203.084733
 30
0.0
  0
SPLINE
  5
127
100
AcDbEntity
  8
Camada_1
 62
7
100
AcDbSpline
 70
8
 71
3
 72
8
 73
4
 74
0
 40
0
 40
0
 40
0
 40
0
 40
1
 40
1
 40
1
 40
1
 10
100.707250
 20
206.325873
 30
0.0
 10
100.634350
 20
207.081983
 30
0.0
 10
100.520560
 20
207.195773
 30
0.0
 10
99.764450
 20
207.268683
 30
0.0
  0
SPLINE
  5
128
100
AcDbEntity
  8
Camada_1
 62
7
100
AcDbSpline
 70
8
 71
3
 72
8
 73
4
 74
0
 40
0
 40
0
 40
0
 40
0
 40
1
 40
1
 40
1
 40
1
 10
99.764450
 20
207.268683
 30
0.0
 10
98.939680
 20
207.348183
 30
0.0
 10
98.904550
 20
207.313083
 30
0.0
 10
98.904550
 20
206.408783
 30
0.0
  0
SPLINE
  5
129
100
AcDbEntity
  8
Camada_1
 62
7
100
AcDbSpline
 70
8
 71
3
 72
8
 73
4
 74
0
 40
0
 40
0
 40
0
 40
0
 40
1
 40
1
 40
1
 40
1
 10
98.904550
 20
206.408783
 30
0.0
 10
98.904550
 20
205.504493
 30
0.0
 10
98.943050
 20
205.465983
 30
0.0
 10
99.847360
 20
205.465983
 30
0.0
  0
SPLINE
  5
12a
100
AcDbEntity
  8
Camada_1
 62
7
100
AcDbSpline
 70
8
 71
3
 72
8
 73
4
 74
0
 40
0
 40
0
 40
0
 40
0
 40
1
 40
1
 40
1
 40
1
 10
99.847360
 20
205.465983
 30
0.0
 10
100.751650
 20
205.465983
 30
0.0
 10
100.786780
 20
205.501083
 30
0.0
 10
100.707250
 20
206.325873
 30
0.0
  0
LWPOLYLINE
  5
12b
100
AcDbEntity
  8
Camada_1
 62
7
100
AcDbPolyline
 90
1
 70
1
 10
113.721220
 20
204.672233
 30
0.0
  0
SPLINE
  5
12c
100
AcDbEntity
  8
Camada_1
 62
7
100
AcDbSpline
 70
8
 71
3
 72
8
 73
4
 74
0
 40
0
 40
0
 40
0
 40
0
 40
1
 40
1
 40
1
 40
1
 10
110.546220
 20
206.422073
 30
0.0
 10
110.546220
 20
206.947273
 30
0.0
 10
110.412680
 20
207.053503
 30
0.0
 10
109.752470
 20
207.053503
 30
0.0
  0
SPLINE
  5
12d
100
AcDbEntity
  8
Camada_1
 62
7
100
AcDbSpline
 70
8
 71
3
 72
8
 73
4
 74
0
 40
0
 40
0
 40
0
 40
0
 40
1
 40
1
 40
1
 40
1
 10
109.752470
 20
207.053503
 30
0.0
 10
109.057720
 20
207.053503
 30
0.0
 10
108.958720
 20
206.960203
 30
0.0
 10
108.958720
 20
206.305573
 30
0.0
  0
SPLINE
  5
12e
100
AcDbEntity
  8
Camada_1
 62
7
100
AcDbSpline
 70
8
 71
3
 72
8
 73
4
 74
0
 40
0
 40
0
 40
0
 40
0
 40
1
 40
1
 40
1
 40
1
 10
108.958720
 20
206.305573
 30
0.0
 10
108.958720
 20
205.625043
 30
0.0
 10
109.030220
 20
205.568143
 30
0.0
 10
109.752470
 20
205.674143
 30
0.0
  0
SPLINE
  5
12f
100
AcDbEntity
  8
Camada_1
 62
7
100
AcDbSpline
 70
8
 71
3
 72
8
 73
4
 74
0
 40
0
 40
0
 40
0
 40
0
 40
1
 40
1
 40
1
 40
1
 10
109.752470
 20
205.674143
 30
0.0
 10
110.380140
 20
205.766243
 30
0.0
 10
110.546220
 20
205.922763
 30
0.0
 10
110.546220
 20
206.422073
 30
0.0
  0
LWPOLYLINE
  5
130
100
AcDbEntity
  8
Camada_1
 62
7
100
AcDbPolyline
 90
1
 70
1
 10
100.707250
 20
206.325873
 30
0.0
  0
SPLINE
  5
131
100
AcDbEntity
  8
Camada_1
 62
7
100
AcDbSpline
 70
8
 71
3
 72
8
 73
4
 74
0
 40
0
 40
0
 40
0
 40
0
 40
1
 40
1
 40
1
 40
1
 10
107.322650
 20
208.045683
 30
0.0
 10
107.252850
 20
208.651963
 30
0.0
 10
107.095540
 20
208.787113
 30
0.0
 10
106.379030
 20
208.856203
 30
0.0
  0
SPLINE
  5
132
100
AcDbEntity
  8
Camada_1
 62
7
100
AcDbSpline
 70
8
 71
3
 72
8
 73
4
 74
0
 40
0
 40
0
 40
0
 40
0
 40
1
 40
1
 40
1
 40
1
 10
106.379030
 20
208.856203
 30
0.0
 10
105.577980
 20
208.933403
 30
0.0
 10
105.519140
 20
208.883603
 30
0.0
 10
105.519140
 20
208.128593
 30
0.0
  0
SPLINE
  5
133
100
AcDbEntity
  8
Camada_1
 62
7
100
AcDbSpline
 70
8
 71
3
 72
8
 73
4
 74
0
 40
0
 40
0
 40
0
 40
0
 40
1
 40
1
 40
1
 40
1
 10
105.519140
 20
208.128593
 30
0.0
 10
105.519140
 20
207.375813
 30
0.0
 10
105.586340
 20
207.318083
 30
0.0
 10
106.462750
 20
207.318083
 30
0.0
  0
SPLINE
  5
134
100
AcDbEntity
  8
Camada_1
 62
7
100
AcDbSpline
 70
8
 71
3
 72
8
 73
4
 74
0
 40
0
 40
0
 40
0
 40
0
 40
1
 40
1
 40
1
 40
1
 10
106.462750
 20
207.318083
 30
0.0
 10
107.336060
 20
207.318083
 30
0.0
 10
107.400130
 20
207.372283
 30
0.0
 10
107.322650
 20
208.045683
 30
0.0
  0
LWPOLYLINE
  5
135
100
AcDbEntity
  8
Camada_1
 62
7
100
AcDbPolyline
 90
1
 70
1
 10
110.546220
 20
206.422073
 30
0.0
  0
SPLINE
  5
136
100
AcDbEntity
  8
Camada_1
 62
7
100
AcDbSpline
 70
8
 71
3
 72
8
 73
4
 74
0
 40
0
 40
0
 40
0
 40
0
 40
1
 40
1
 40
1
 40
1
 10
98.904550
 20
209.699333
 30
0.0
 10
98.904550
 20
210.404893
 30
0.0
 10
98.816350
 20
210.493083
 30
0.0
 10
98.110800
 20
210.493083
 30
0.0
  0
SPLINE
  5
137
100
AcDbEntity
  8
Camada_1
 62
7
100
AcDbSpline
 70
8
 71
3
 72
8
 73
4
 74
0
 40
0
 40
0
 40
0
 40
0
 40
1
 40
1
 40
1
 40
1
 10
98.110800
 20
210.493083
 30
0.0
 10
97.405250
 20
210.493083
 30
0.0
 10
97.317050
 20
210.404883
 30
0.0
 10
97.317050
 20
209.699333
 30
0.0
  0
SPLINE
  5
138
100
AcDbEntity
  8
Camada_1
 62
7
100
AcDbSpline
 70
8
 71
3
 72
8
 73
4
 74
0
 40
0
 40
0
 40
0
 40
0
 40
1
 40
1
 40
1
 40
1
 10
97.317050
 20
209.699333
 30
0.0
 10
97.317050
 20
208.993773
 30
0.0
 10
97.405250
 20
208.905583
 30
0.0
 10
98.110800
 20
208.905583
 30
0.0
  0
SPLINE
  5
139
100
AcDbEntity
  8
Camada_1
 62
7
100
AcDbSpline
 70
8
 71
3
 72
8
 73
4
 74
0
 40
0
 40
0
 40
0
 40
0
 40
1
 40
1
 40
1
 40
1
 10
98.110800
 20
208.905583
 30
0.0
 10
98.816360
 20
208.905583
 30
0.0
 10
98.904550
 20
208.993783
 30
0.0
 10
98.904550
 20
209.699333
 30
0.0
  0
LWPOLYLINE
  5
13a
100
AcDbEntity
  8
Camada_1
 62
7
100
AcDbPolyline
 90
1
 70
1
 10
107.322650
 20
208.045683
 30
0.0
  0
SPLINE
  5
13b
100
AcDbEntity
  8
Camada_1
 62
7
100
AcDbSpline
 70
8
 71
3
 72
8
 73
4
 74
0
 40
0
 40
0
 40
0
 40
0
 40
1
 40
1
 40
1
 40
1
 10
103.931640
 20
209.699333
 30
0.0
 10
103.931640
 20
210.404893
 30
0.0
 10
103.843440
 20
210.493083
 30
0.0
 10
103.137890
 20
210.493083
 30
0.0
  0
SPLINE
  5
13c
100
AcDbEntity
  8
Camada_1
 62
7
100
AcDbSpline
 70
8
 71
3
 72
8
 73
4
 74
0
 40
0
 40
0
 40
0
 40
0
 40
1
 40
1
 40
1
 40
1
 10
103.137890
 20
210.493083
 30
0.0
 10
102.432330
 20
210.493083
 30
0.0
 10
102.344140
 20
210.404883
 30
0.0
 10
102.344140
 20
209.699333
 30
0.0
  0
SPLINE
  5
13d
100
AcDbEntity
  8
Camada_1
 62
7
100
AcDbSpline
 70
8
 71
3
 72
8
 73
4
 74
0
 40
0
 40
0
 40
0
 40
0
 40
1
 40
1
 40
1
 40
1
 10
102.344140
 20
209.699333
 30
0.0
 10
102.344140
 20
208.993773
 30
0.0
 10
102.432340
 20
208.905583
 30
0.0
 10
103.137890
 20
208.905583
 30
0.0
  0
SPLINE
  5
13e
100
AcDbEntity
  8
Camada_1
 62
7
100
AcDbSpline
 70
8
 71
3
 72
8
 73
4
 74
0
 40
0
 40
0
 40
0
 40
0
 40
1
 40
1
 40
1
 40
1
 10
103.137890
 20
208.905583
 30
0.0
 10
103.843440
 20
208.905583
 30
0.0
 10
103.931640
 20
208.993783
 30
0.0
 10
103.931640
 20
209.699333
 30
0.0
  0
LWPOLYLINE
  5
13f
100
AcDbEntity
  8
Camada_1
 62
7
100
AcDbPolyline
 90
1
 70
1
 10
98.904550
 20
209.699333
 30
0.0
  0
SPLINE
  5
140
100
AcDbEntity
  8
Camada_1
 62
7
100
AcDbSpline
 70
8
 71
3
 72
8
 73
4
 74
0
 40
0
 40
0
 40
0
 40
0
 40
1
 40
1
 40
1
 40
1
 10
116.367050
 20
209.471583
 30
0.0
 10
115.712210
 20
210.042663
 30
0.0
 10
114.581120
 20
210.860683
 30
0.0
 10
113.853510
 20
211.289403
 30
0.0
  0
SPLINE
  5
141
100
AcDbEntity
  8
Camada_1
 62
7
100
AcDbSpline
 70
8
 71
3
 72
8
 73
4
 74
0
 40
0
 40
0
 40
0
 40
0
 40
1
 40
1
 40
1
 40
1
 10
113.853510
 20
211.289403
 30
0.0
 10
112.837960
 20
211.887803
 30
0.0
 10
112.668910
 20
212.070263
 30
0.0
 10
113.125910
 20
212.074743
 30
0.0
  0
SPLINE
  5
142
100
AcDbEntity
  8
Camada_1
 62
7
100
AcDbSpline
 70
8
 71
3
 72
8
 73
4
 74
0
 40
0
 40
0
 40
0
 40
0
 40
1
 40
1
 40
1
 40
1
 10
113.125910
 20
212.074743
 30
0.0
 10
113.630900
 20
212.079743
 30
0.0
 10
113.721220
 20
212.223753
 30
0.0
 10
113.721220
 20
213.024203
 30
0.0
  0
SPLINE
  5
143
100
AcDbEntity
  8
Camada_1
 62
7
100
AcDbSpline
 70
8
 71
3
 72
8
 73
4
 74
0
 40
0
 40
0
 40
0
 40
0
 40
1
 40
1
 40
1
 40
1
 10
113.721220
 20
213.024203
 30
0.0
 10
113.721220
 20
213.897503
 30
0.0
 10
113.667020
 20
213.961573
 30
0.0
 10
112.993620
 20
213.884093
 30
0.0
  0
SPLINE
  5
144
100
AcDbEntity
  8
Camada_1
 62
7
100
AcDbSpline
 70
8
 71
3
 72
8
 73
4
 74
0
 40
0
 40
0
 40
0
 40
0
 40
1
 40
1
 40
1
 40
1
 10
112.993620
 20
213.884093
 30
0.0
 10
112.423320
 20
213.818493
 30
0.0
 10
112.248000
 20
213.643983
 30
0.0
 10
112.182700
 20
213.077013
 30
0.0
  0
LWPOLYLINE
  5
145
100
AcDbEntity
  8
Camada_1
 62
7
100
AcDbPolyline
 90
1
 70
1
 10
103.931640
 20
209.699333
 30
0.0
  0
SPLINE
  5
146
100
AcDbEntity
  8
Camada_1
 62
7
100
AcDbSpline
 70
8
 71
3
 72
8
 73
4
 74
0
 40
0
 40
0
 40
0
 40
0
 40
1
 40
1
 40
1
 40
1
 10
110.859790
 20
212.979823
 30
0.0
 10
107.990810
 20
214.429053
 30
0.0
 10
101.653910
 20
216.049333
 30
0.0
 10
98.854950
 20
216.049333
 30
0.0
  0
LWPOLYLINE
  5
147
100
AcDbEntity
  8
Camada_1
 62
7
100
AcDbPolyline
 90
3
 70
0
 10
112.182700
 20
213.077013
 30
0.0
 10
112.099400
 20
212.353653
 30
0.0
 10
110.859790
 20
212.979823
 30
0.0
  0
SPLINE
  5
148
100
AcDbEntity
  8
Camada_1
 62
7
100
AcDbSpline
 70
8
 71
3
 72
8
 73
4
 74
0
 40
0
 40
0
 40
0
 40
0
 40
1
 40
1
 40
1
 40
1
 10
98.294290
 20
216.871803
 30
0.0
 10
99.030750
 20
218.139053
 30
0.0
 10
101.260270
 20
220.027013
 30
0.0
 10
102.873310
 20
220.749333
 30
0.0
  0
SPLINE
  5
149
100
AcDbEntity
  8
Camada_1
 62
7
100
AcDbSpline
 70
8
 71
3
 72
8
 73
4
 74
0
 40
0
 40
0
 40
0
 40
0
 40
1
 40
1
 40
1
 40
1
 10
102.873310
 20
220.749333
 30
0.0
 10
104.862550
 20
221.640113
 30
0.0
 10
108.007400
 20
221.842773
 30
0.0
 10
110.154630
 20
221.218563
 30
0.0
  0
SPLINE
  5
14a
100
AcDbEntity
  8
Camada_1
 62
7
100
AcDbSpline
 70
8
 71
3
 72
8
 73
4
 74
0
 40
0
 40
0
 40
0
 40
0
 40
1
 40
1
 40
1
 40
1
 10
110.154630
 20
221.218563
 30
0.0
 10
112.006420
 20
220.680233
 30
0.0
 10
114.208210
 20
219.282953
 30
0.0
 10
115.322500
 20
217.938983
 30
0.0
  0
SPLINE
  5
14b
100
AcDbEntity
  8
Camada_1
 62
7
100
AcDbSpline
 70
8
 71
3
 72
8
 73
4
 74
0
 40
0
 40
0
 40
0
 40
0
 40
1
 40
1
 40
1
 40
1
 10
115.322500
 20
217.938983
 30
0.0
 10
117.157100
 20
215.726233
 30
0.0
 10
118.150880
 20
212.330163
 30
0.0
 10
117.744670
 20
209.661613
 30
0.0
  0
LWPOLYLINE
  5
14c
100
AcDbEntity
  8
Camada_1
 62
7
100
AcDbPolyline
 90
3
 70
0
 10
98.854950
 20
216.049333
 30
0.0
 10
97.816310
 20
216.049333
 30
0.0
 10
98.294290
 20
216.871803
 30
0.0
  0
LWPOLYLINE
  5
14d
100
AcDbEntity
  8
Camada_1
 62
7
100
AcDbPolyline
 90
3
 70
0
 10
117.744670
 20
209.661613
 30
0.0
 10
117.557690
 20
208.433263
 30
0.0
 10
116.367050
 20
209.471583
 30
0.0
  0
ENDSEC
  0
SECTION
  2
OBJECTS
  0
DICTIONARY
  5
C
330
0
100
AcDbDictionary
  3
ACAD_GROUP
350
D
  3
ACAD_MLINESTYLE
350
17
  0
DICTIONARY
  5
D
330
C
100
AcDbDictionary
  0
DICTIONARY
  5
1A
330
C
100
AcDbDictionary
  0
DICTIONARY
  5
17
330
C
100
AcDbDictionary
  3
STANDARD
350
18
  0
DICTIONARY
  5
19
330
C
100
AcDbDictionary
  0
ENDSEC
  0
EOF
