  0
SECTION
  2
HEADER
  9
$ACADVER
  1
AC1014
  9
$HANDSEED
  5
FFFF
  9
$MEASUREMENT
 70
     1
  0
ENDSEC
  0
SECTION
  2
TABLES
  0
TABLE
  2
VPORT
  5
8
330
0
100
AcDbSymbolTable
 70
     4
  0
VPORT
  5
2E
330
8
100
AcDbSymbolTableRecord
100
AcDbViewportTableRecord
  2
*ACTIVE
 70
     0
 10
0.0
 20
0.0
 11
1.0
 21
1.0
 12
210.0
 22
148.5
 13
0.0
 23
0.0
 14
10.0
 24
10.0
 15
10.0
 25
10.0
 16
0.0
 26
0.0
 36
1.0
 17
0.0
 27
0.0
 37
0.0
 40
341.0
 41
1.24
 42
50.0
 43
0.0
 44
0.0
 50
0.0
 51
0.0
 71
     0
 72
   100
 73
     1
 74
     3
 75
     0
 76
     0
 77
     0
 78
     0
  0
ENDTAB
  0
TABLE
  2
LTYPE
  5
5
330
0
100
AcDbSymbolTable
 70
     1
  0
LTYPE
  5
14
330
5
100
AcDbSymbolTableRecord
100
AcDbLinetypeTableRecord
  2
BYBLOCK
 70
     0
  3

 72
    65
 73
     0
 40
0.0
  0
LTYPE
  5
15
330
5
100
AcDbSymbolTableRecord
100
AcDbLinetypeTableRecord
  2
BYLAYER
 70
     0
  3

 72
    65
 73
     0
 40
0.0
  0
LTYPE
  5
16
330
5
100
AcDbSymbolTableRecord
100
AcDbLinetypeTableRecord
  2
CONTINUOUS
 70
     0
  3
Solid line
 72
    65
 73
     0
 40
0.0
  0
ENDTAB
  0
TABLE
  2
LAYER
  5
2
100
AcDbSymbolTable
 70
2
  0
LAYER
  5
50
100
AcDbSymbolTableRecord
100
AcDbLayerTableRecord
  2
0
 70
0
  6
CONTINUOUS
  0
LAYER
  5
51
100
AcDbSymbolTableRecord
100
AcDbLayerTableRecord
  2
Image
 70
0
  6
CONTINUOUS
  0
ENDTAB
  0
TABLE
  2
STYLE
  5
3
330
0
100
AcDbSymbolTable
 70
     1
  0
STYLE
  5
11
330
3
100
AcDbSymbolTableRecord
100
AcDbTextStyleTableRecord
  2
STANDARD
 70
     0
 40
0.0
 41
1.0
 50
0.0
 71
     0
 42
2.5
  3
txt
  4

  0
ENDTAB
  0
TABLE
  2
VIEW
  5
6
330
0
100
AcDbSymbolTable
 70
     0
  0
ENDTAB
  0
TABLE
  2
UCS
  5
7
330
0
100
AcDbSymbolTable
 70
     0
  0
ENDTAB
  0
TABLE
  2
APPID
  5
9
330
0
100
AcDbSymbolTable
 70
     2
  0
APPID
  5
12
330
9
100
AcDbSymbolTableRecord
100
AcDbRegAppTableRecord
  2
ACAD
 70
     0
  0
ENDTAB
  0
TABLE
  2
DIMSTYLE
  5
A
330
0
100
AcDbSymbolTable
 70
     1
  0
DIMSTYLE
105
27
330
A
100
AcDbSymbolTableRecord
100
AcDbDimStyleTableRecord
  2
ISO-25
 70
     0
  3

  4

  5

  6

  7

 40
1.0
 41
2.5
 42
0.625
 43
3.75
 44
1.25
 45
0.0
 46
0.0
 47
0.0
 48
0.0
140
2.5
141
2.5
142
0.0
143
0.03937007874016
144
1.0
145
0.0
146
1.0
147
0.625
 71
     0
 72
     0
 73
     0
 74
     0
 75
     0
 76
     0
 77
     1
 78
     8
170
     0
171
     3
172
     1
173
     0
174
     0
175
     0
176
     0
177
     0
178
     0
270
     2
271
     2
272
     2
273
     2
274
     3
340
11
275
     0
280
     0
281
     0
282
     0
283
     0
284
     8
285
     0
286
     0
287
     3
288
     0
  0
ENDTAB
  0
TABLE
  2
BLOCK_RECORD
  5
1
330
0
100
AcDbSymbolTable
 70
     1
  0
BLOCK_RECORD
  5
1F
330
1
100
AcDbSymbolTableRecord
100
AcDbBlockTableRecord
  2
*MODEL_SPACE
  0
BLOCK_RECORD
  5
1B
330
1
100
AcDbSymbolTableRecord
100
AcDbBlockTableRecord
  2
*PAPER_SPACE
  0
ENDTAB
  0
ENDSEC
  0
SECTION
  2
BLOCKS
  0
BLOCK
  5
20
330
1F
100
AcDbEntity
  8
0
100
AcDbBlockBegin
  2
*MODEL_SPACE
 70
     0
 10
0.0
 20
0.0
 30
0.0
  3
*MODEL_SPACE
  1

  0
ENDBLK
  5
21
330
1F
100
AcDbEntity
  8
0
100
AcDbBlockEnd
  0
BLOCK
  5
1C
330
1B
100
AcDbEntity
 67
     1
  8
0
100
AcDbBlockBegin
  2
*PAPER_SPACE
  1

  0
ENDBLK
  5
1D
330
1B
100
AcDbEntity
 67
     1
  8
0
100
AcDbBlockEnd
  0
ENDSEC
  0
SECTION
  2
ENTITIES
  0
SPLINE
  5
100
100
AcDbEntity
  8
Image
 62
7
100
AcDbSpline
 70
8
 71
3
 72
8
 73
4
 74
0
 40
0
 40
0
 40
0
 40
0
 40
1
 40
1
 40
1
 40
1
 10
18.044007
 20
191.604945
 30
0.0
 10
17.885313
 20
191.801972
 30
0.0
 10
17.791997
 20
193.754023
 30
0.0
 10
17.813174
 20
196.433591
 30
0.0
  0
SPLINE
  5
101
100
AcDbEntity
  8
Image
 62
7
100
AcDbSpline
 70
8
 71
3
 72
8
 73
4
 74
0
 40
0
 40
0
 40
0
 40
0
 40
1
 40
1
 40
1
 40
1
 10
33.220713
 20
202.036233
 30
0.0
 10
33.531358
 20
203.692104
 30
0.0
 10
33.368581
 20
203.726452
 30
0.0
 10
25.396627
 20
203.687238
 30
0.0
  0
SPLINE
  5
102
100
AcDbEntity
  8
Image
 62
7
100
AcDbSpline
 70
8
 71
3
 72
8
 73
4
 74
0
 40
0
 40
0
 40
0
 40
0
 40
1
 40
1
 40
1
 40
1
 10
25.396627
 20
203.687238
 30
0.0
 10
21.536319
 20
203.668241
 30
0.0
 10
18.199294
 20
203.665410
 30
0.0
 10
17.981012
 20
203.680888
 30
0.0
  0
SPLINE
  5
103
100
AcDbEntity
  8
Image
 62
7
100
AcDbSpline
 70
8
 71
3
 72
8
 73
4
 74
0
 40
0
 40
0
 40
0
 40
0
 40
1
 40
1
 40
1
 40
1
 10
17.981012
 20
203.680888
 30
0.0
 10
17.644259
 20
203.704806
 30
0.0
 10
17.609257
 20
204.119940
 30
0.0
 10
17.749965
 20
206.421326
 30
0.0
  0
SPLINE
  5
104
100
AcDbEntity
  8
Image
 62
7
100
AcDbSpline
 70
8
 71
3
 72
8
 73
4
 74
0
 40
0
 40
0
 40
0
 40
0
 40
1
 40
1
 40
1
 40
1
 10
17.749965
 20
206.421326
 30
0.0
 10
17.841170
 20
207.913065
 30
0.0
 10
17.854896
 20
209.979842
 30
0.0
 10
17.780469
 20
211.014164
 30
0.0
  0
SPLINE
  5
105
100
AcDbEntity
  8
Image
 62
7
100
AcDbSpline
 70
8
 71
3
 72
8
 73
4
 74
0
 40
0
 40
0
 40
0
 40
0
 40
1
 40
1
 40
1
 40
1
 10
17.780469
 20
211.014164
 30
0.0
 10
17.693704
 20
212.219913
 30
0.0
 10
17.747983
 20
212.958310
 30
0.0
 10
17.931731
 20
213.071869
 30
0.0
  0
SPLINE
  5
106
100
AcDbEntity
  8
Image
 62
7
100
AcDbSpline
 70
8
 71
3
 72
8
 73
4
 74
0
 40
0
 40
0
 40
0
 40
0
 40
1
 40
1
 40
1
 40
1
 10
17.931731
 20
213.071869
 30
0.0
 10
18.089351
 20
213.169286
 30
0.0
 10
21.503365
 20
213.250452
 30
0.0
 10
25.518425
 20
213.252240
 30
0.0
  0
LWPOLYLINE
  5
107
100
AcDbEntity
  8
Image
 62
7
100
AcDbPolyline
 90
5
 70
0
 10
17.813174
 20
196.433591
 30
0.0
 10
17.848721
 20
200.931507
 30
0.0
 10
25.444260
 20
201.001693
 30
0.0
 10
33.039799
 20
201.071877
 30
0.0
 10
33.220713
 20
202.036233
 30
0.0
  0
SPLINE
  5
108
100
AcDbEntity
  8
Image
 62
7
100
AcDbSpline
 70
8
 71
3
 72
8
 73
4
 74
0
 40
0
 40
0
 40
0
 40
0
 40
1
 40
1
 40
1
 40
1
 10
33.106270
 20
213.887005
 30
0.0
 10
33.264525
 20
214.234334
 30
0.0
 10
33.317095
 20
214.824950
 30
0.0
 10
33.223092
 20
215.199484
 30
0.0
  0
LWPOLYLINE
  5
109
100
AcDbEntity
  8
Image
 62
7
100
AcDbPolyline
 90
3
 70
0
 10
25.518425
 20
213.252240
 30
0.0
 10
32.818533
 20
213.255495
 30
0.0
 10
33.106270
 20
213.887005
 30
0.0
  0
SPLINE
  5
10a
100
AcDbEntity
  8
Image
 62
7
100
AcDbSpline
 70
8
 71
3
 72
8
 73
4
 74
0
 40
0
 40
0
 40
0
 40
0
 40
1
 40
1
 40
1
 40
1
 10
25.664502
 20
215.880466
 30
0.0
 10
20.044911
 20
215.880466
 30
0.0
 10
18.225596
 20
215.959619
 30
0.0
 10
18.062774
 20
216.211195
 30
0.0
  0
SPLINE
  5
10b
100
AcDbEntity
  8
Image
 62
7
100
AcDbSpline
 70
8
 71
3
 72
8
 73
4
 74
0
 40
0
 40
0
 40
0
 40
0
 40
1
 40
1
 40
1
 40
1
 10
18.062774
 20
216.211195
 30
0.0
 10
17.945045
 20
216.393096
 30
0.0
 10
17.822622
 20
218.387393
 30
0.0
 10
17.790724
 20
220.642966
 30
0.0
  0
SPLINE
  5
10c
100
AcDbEntity
  8
Image
 62
7
100
AcDbSpline
 70
8
 71
3
 72
8
 73
4
 74
0
 40
0
 40
0
 40
0
 40
0
 40
1
 40
1
 40
1
 40
1
 10
17.790724
 20
220.642966
 30
0.0
 10
17.758826
 20
222.898539
 30
0.0
 10
17.655009
 20
225.074779
 30
0.0
 10
17.560018
 20
225.479057
 30
0.0
  0
LWPOLYLINE
  5
10d
100
AcDbEntity
  8
Image
 62
7
100
AcDbPolyline
 90
3
 70
0
 10
33.223092
 20
215.199484
 30
0.0
 10
33.052181
 20
215.880466
 30
0.0
 10
25.664502
 20
215.880466
 30
0.0
  0
SPLINE
  5
10e
100
AcDbEntity
  8
Image
 62
7
100
AcDbSpline
 70
8
 71
3
 72
8
 73
4
 74
0
 40
0
 40
0
 40
0
 40
0
 40
1
 40
1
 40
1
 40
1
 10
25.093010
 20
226.191352
 30
0.0
 10
29.331142
 20
226.178838
 30
0.0
 10
32.917537
 20
226.242049
 30
0.0
 10
33.062778
 20
226.331812
 30
0.0
  0
SPLINE
  5
10f
100
AcDbEntity
  8
Image
 62
7
100
AcDbSpline
 70
8
 71
3
 72
8
 73
4
 74
0
 40
0
 40
0
 40
0
 40
0
 40
1
 40
1
 40
1
 40
1
 10
33.062778
 20
226.331812
 30
0.0
 10
33.410618
 20
226.546791
 30
0.0
 10
33.400085
 20
227.684645
 30
0.0
 10
33.044098
 20
228.349818
 30
0.0
  0
SPLINE
  5
110
100
AcDbEntity
  8
Image
 62
7
100
AcDbSpline
 70
8
 71
3
 72
8
 73
4
 74
0
 40
0
 40
0
 40
0
 40
0
 40
1
 40
1
 40
1
 40
1
 10
33.044098
 20
228.349818
 30
0.0
 10
32.877710
 20
228.660719
 30
0.0
 10
32.523830
 20
228.859278
 30
0.0
 10
32.184202
 20
228.832304
 30
0.0
  0
SPLINE
  5
111
100
AcDbEntity
  8
Image
 62
7
100
AcDbSpline
 70
8
 71
3
 72
8
 73
4
 74
0
 40
0
 40
0
 40
0
 40
0
 40
1
 40
1
 40
1
 40
1
 10
32.184202
 20
228.832304
 30
0.0
 10
31.866774
 20
228.807089
 30
0.0
 10
28.492773
 20
228.799641
 30
0.0
 10
24.686425
 20
228.815741
 30
0.0
  0
LWPOLYLINE
  5
112
100
AcDbEntity
  8
Image
 62
7
100
AcDbPolyline
 90
3
 70
0
 10
17.560018
 20
225.479057
 30
0.0
 10
17.387311
 20
226.214107
 30
0.0
 10
25.093010
 20
226.191352
 30
0.0
  0
SPLINE
  5
113
100
AcDbEntity
  8
Image
 62
7
100
AcDbSpline
 70
8
 71
3
 72
8
 73
4
 74
0
 40
0
 40
0
 40
0
 40
0
 40
1
 40
1
 40
1
 40
1
 10
17.807253
 20
233.368252
 30
0.0
 10
17.830060
 20
235.856013
 30
0.0
 10
17.746713
 20
237.954489
 30
0.0
 10
17.622036
 20
238.031533
 30
0.0
  0
SPLINE
  5
114
100
AcDbEntity
  8
Image
 62
7
100
AcDbSpline
 70
8
 71
3
 72
8
 73
4
 74
0
 40
0
 40
0
 40
0
 40
0
 40
1
 40
1
 40
1
 40
1
 10
17.622036
 20
238.031533
 30
0.0
 10
16.905587
 20
238.474258
 30
0.0
 10
18.894166
 20
238.626962
 30
0.0
 10
25.423096
 20
238.630582
 30
0.0
  0
SPLINE
  5
115
100
AcDbEntity
  8
Image
 62
7
100
AcDbSpline
 70
8
 71
3
 72
8
 73
4
 74
0
 40
0
 40
0
 40
0
 40
0
 40
1
 40
1
 40
1
 40
1
 10
25.423096
 20
238.630582
 30
0.0
 10
33.397706
 20
238.635000
 30
0.0
 10
33.451205
 20
238.645266
 30
0.0
 10
33.279818
 20
240.139987
 30
0.0
  0
LWPOLYLINE
  5
116
100
AcDbEntity
  8
Image
 62
7
100
AcDbPolyline
 90
3
 70
0
 10
24.686425
 20
228.815741
 30
0.0
 10
17.765782
 20
228.845049
 30
0.0
 10
17.807253
 20
233.368252
 30
0.0
  0
SPLINE
  5
117
100
AcDbEntity
  8
Image
 62
7
100
AcDbSpline
 70
8
 71
3
 72
8
 73
4
 74
0
 40
0
 40
0
 40
0
 40
0
 40
1
 40
1
 40
1
 40
1
 10
17.868795
 20
241.879818
 30
0.0
 10
17.794719
 20
242.350539
 30
0.0
 10
17.759900
 20
244.581143
 30
0.0
 10
17.791417
 20
246.836716
 30
0.0
  0
LWPOLYLINE
  5
118
100
AcDbEntity
  8
Image
 62
7
100
AcDbPolyline
 90
5
 70
0
 10
33.279818
 20
240.139987
 30
0.0
 10
33.194554
 20
240.883591
 30
0.0
 10
25.599015
 20
240.953777
 30
0.0
 10
18.003476
 20
241.023960
 30
0.0
 10
17.868795
 20
241.879818
 30
0.0
  0
SPLINE
  5
119
100
AcDbEntity
  8
Image
 62
7
100
AcDbSpline
 70
8
 71
3
 72
8
 73
4
 74
0
 40
0
 40
0
 40
0
 40
0
 40
1
 40
1
 40
1
 40
1
 10
33.277622
 20
251.923198
 30
0.0
 10
33.460182
 20
253.507425
 30
0.0
 10
33.559345
 20
253.486923
 30
0.0
 10
25.843741
 20
253.460094
 30
0.0
  0
SPLINE
  5
11a
100
AcDbEntity
  8
Image
 62
7
100
AcDbSpline
 70
8
 71
3
 72
8
 73
4
 74
0
 40
0
 40
0
 40
0
 40
0
 40
1
 40
1
 40
1
 40
1
 10
25.843741
 20
253.460094
 30
0.0
 10
18.739708
 20
253.435382
 30
0.0
 10
17.310908
 20
253.538371
 30
0.0
 10
17.628476
 20
254.052208
 30
0.0
  0
SPLINE
  5
11b
100
AcDbEntity
  8
Image
 62
7
100
AcDbSpline
 70
8
 71
3
 72
8
 73
4
 74
0
 40
0
 40
0
 40
0
 40
0
 40
1
 40
1
 40
1
 40
1
 10
17.628476
 20
254.052208
 30
0.0
 10
17.723613
 20
254.206142
 30
0.0
 10
17.797783
 20
256.247268
 30
0.0
 10
17.793301
 20
258.588047
 30
0.0
  0
SPLINE
  5
11c
100
AcDbEntity
  8
Image
 62
7
100
AcDbSpline
 70
8
 71
3
 72
8
 73
4
 74
0
 40
0
 40
0
 40
0
 40
0
 40
1
 40
1
 40
1
 40
1
 10
17.793301
 20
258.588047
 30
0.0
 10
17.788671
 20
261.008017
 30
0.0
 10
17.898013
 20
262.986164
 30
0.0
 10
18.046772
 20
263.173536
 30
0.0
  0
SPLINE
  5
11d
100
AcDbEntity
  8
Image
 62
7
100
AcDbSpline
 70
8
 71
3
 72
8
 73
4
 74
0
 40
0
 40
0
 40
0
 40
0
 40
1
 40
1
 40
1
 40
1
 10
18.046772
 20
263.173536
 30
0.0
 10
18.254824
 20
263.435588
 30
0.0
 10
41.458121
 20
263.503430
 30
0.0
 10
131.366268
 20
263.504856
 30
0.0
  0
SPLINE
  5
11e
100
AcDbEntity
  8
Image
 62
7
100
AcDbSpline
 70
8
 71
3
 72
8
 73
4
 74
0
 40
0
 40
0
 40
0
 40
0
 40
1
 40
1
 40
1
 40
1
 10
131.366268
 20
263.504856
 30
0.0
 10
193.548098
 20
263.505914
 30
0.0
 10
244.596415
 20
263.572756
 30
0.0
 10
244.806975
 20
263.653554
 30
0.0
  0
SPLINE
  5
11f
100
AcDbEntity
  8
Image
 62
7
100
AcDbSpline
 70
8
 71
3
 72
8
 73
4
 74
0
 40
0
 40
0
 40
0
 40
0
 40
1
 40
1
 40
1
 40
1
 10
244.806975
 20
263.653554
 30
0.0
 10
245.455469
 20
263.902405
 30
0.0
 10
245.579024
 20
263.018948
 30
0.0
 10
245.539985
 20
258.412237
 30
0.0
  0
SPLINE
  5
120
100
AcDbEntity
  8
Image
 62
7
100
AcDbSpline
 70
8
 71
3
 72
8
 73
4
 74
0
 40
0
 40
0
 40
0
 40
0
 40
1
 40
1
 40
1
 40
1
 10
245.539985
 20
258.412237
 30
0.0
 10
245.510746
 20
254.962046
 30
0.0
 10
245.577924
 20
253.976346
 30
0.0
 10
245.843282
 20
253.961868
 30
0.0
  0
SPLINE
  5
121
100
AcDbEntity
  8
Image
 62
7
100
AcDbSpline
 70
8
 71
3
 72
8
 73
4
 74
0
 40
0
 40
0
 40
0
 40
0
 40
1
 40
1
 40
1
 40
1
 10
245.843282
 20
253.961868
 30
0.0
 10
246.030753
 20
253.951629
 30
0.0
 10
245.946012
 20
253.839173
 30
0.0
 10
245.654970
 20
253.711940
 30
0.0
  0
SPLINE
  5
122
100
AcDbEntity
  8
Image
 62
7
100
AcDbSpline
 70
8
 71
3
 72
8
 73
4
 74
0
 40
0
 40
0
 40
0
 40
0
 40
1
 40
1
 40
1
 40
1
 10
245.654970
 20
253.711940
 30
0.0
 10
245.363929
 20
253.584707
 30
0.0
 10
241.860382
 20
253.481276
 30
0.0
 10
237.869312
 20
253.482094
 30
0.0
  0
SPLINE
  5
123
100
AcDbEntity
  8
Image
 62
7
100
AcDbSpline
 70
8
 71
3
 72
8
 73
4
 74
0
 40
0
 40
0
 40
0
 40
0
 40
1
 40
1
 40
1
 40
1
 10
237.869312
 20
253.482094
 30
0.0
 10
229.927412
 20
253.483681
 30
0.0
 10
230.043511
 20
253.507388
 30
0.0
 10
230.226068
 20
251.923198
 30
0.0
  0
LWPOLYLINE
  5
124
100
AcDbEntity
  8
Image
 62
7
100
AcDbPolyline
 90
5
 70
0
 10
17.791417
 20
246.836716
 30
0.0
 10
17.848721
 20
250.937757
 30
0.0
 10
25.521637
 20
251.070049
 30
0.0
 10
33.194554
 20
251.202341
 30
0.0
 10
33.277622
 20
251.923198
 30
0.0
  0
SPLINE
  5
125
100
AcDbEntity
  8
Image
 62
7
100
AcDbSpline
 70
8
 71
3
 72
8
 73
4
 74
0
 40
0
 40
0
 40
0
 40
0
 40
1
 40
1
 40
1
 40
1
 10
245.551116
 20
247.365882
 30
0.0
 10
245.557783
 20
245.401351
 30
0.0
 10
245.554106
 20
243.168929
 30
0.0
 10
245.542967
 20
242.404945
 30
0.0
  0
LWPOLYLINE
  5
126
100
AcDbEntity
  8
Image
 62
7
100
AcDbPolyline
 90
5
 70
0
 10
230.226068
 20
251.923198
 30
0.0
 10
230.309137
 20
251.202341
 30
0.0
 10
237.924067
 20
251.070049
 30
0.0
 10
245.538998
 20
250.937757
 30
0.0
 10
245.551116
 20
247.365882
 30
0.0
  0
SPLINE
  5
127
100
AcDbEntity
  8
Image
 62
7
100
AcDbSpline
 70
8
 71
3
 72
8
 73
4
 74
0
 40
0
 40
0
 40
0
 40
0
 40
1
 40
1
 40
1
 40
1
 10
230.180888
 20
240.155987
 30
0.0
 10
230.188482
 20
238.546320
 30
0.0
 10
230.002728
 20
238.585648
 30
0.0
 10
237.431688
 20
238.620784
 30
0.0
  0
SPLINE
  5
128
100
AcDbEntity
  8
Image
 62
7
100
AcDbSpline
 70
8
 71
3
 72
8
 73
4
 74
0
 40
0
 40
0
 40
0
 40
0
 40
1
 40
1
 40
1
 40
1
 10
237.431688
 20
238.620784
 30
0.0
 10
244.971155
 20
238.656442
 30
0.0
 10
246.204110
 20
238.547405
 30
0.0
 10
245.869267
 20
237.874606
 30
0.0
  0
SPLINE
  5
129
100
AcDbEntity
  8
Image
 62
7
100
AcDbSpline
 70
8
 71
3
 72
8
 73
4
 74
0
 40
0
 40
0
 40
0
 40
0
 40
1
 40
1
 40
1
 40
1
 10
245.869267
 20
237.874606
 30
0.0
 10
245.751398
 20
237.637778
 30
0.0
 10
245.654962
 20
235.509165
 30
0.0
 10
245.654962
 20
233.144356
 30
0.0
  0
LWPOLYLINE
  5
12a
100
AcDbEntity
  8
Image
 62
7
100
AcDbPolyline
 90
5
 70
0
 10
245.542967
 20
242.404945
 30
0.0
 10
245.522673
 20
241.015882
 30
0.0
 10
237.849757
 20
241.015882
 30
0.0
 10
230.176840
 20
241.015882
 30
0.0
 10
230.180888
 20
240.155987
 30
0.0
  0
SPLINE
  5
12b
100
AcDbEntity
  8
Image
 62
7
100
AcDbSpline
 70
8
 71
3
 72
8
 73
4
 74
0
 40
0
 40
0
 40
0
 40
0
 40
1
 40
1
 40
1
 40
1
 10
240.098712
 20
228.802335
 30
0.0
 10
237.042775
 20
228.779025
 30
0.0
 10
233.687459
 20
228.771421
 30
0.0
 10
232.642452
 20
228.785428
 30
0.0
  0
SPLINE
  5
12c
100
AcDbEntity
  8
Image
 62
7
100
AcDbSpline
 70
8
 71
3
 72
8
 73
4
 74
0
 40
0
 40
0
 40
0
 40
0
 40
1
 40
1
 40
1
 40
1
 10
232.642452
 20
228.785428
 30
0.0
 10
230.477814
 20
228.814432
 30
0.0
 10
230.094779
 20
228.564612
 30
0.0
 10
230.224931
 20
227.208689
 30
0.0
  0
LWPOLYLINE
  5
12d
100
AcDbEntity
  8
Image
 62
7
100
AcDbPolyline
 90
3
 70
0
 10
245.654962
 20
233.144356
 30
0.0
 10
245.654962
 20
228.844705
 30
0.0
 10
240.098712
 20
228.802335
 30
0.0
  0
SPLINE
  5
12e
100
AcDbEntity
  8
Image
 62
7
100
AcDbSpline
 70
8
 71
3
 72
8
 73
4
 74
0
 40
0
 40
0
 40
0
 40
0
 40
1
 40
1
 40
1
 40
1
 10
237.827701
 20
226.261165
 30
0.0
 10
245.274841
 20
226.191493
 30
0.0
 10
246.426442
 20
226.053581
 30
0.0
 10
245.818554
 20
225.304215
 30
0.0
  0
SPLINE
  5
12f
100
AcDbEntity
  8
Image
 62
7
100
AcDbSpline
 70
8
 71
3
 72
8
 73
4
 74
0
 40
0
 40
0
 40
0
 40
0
 40
1
 40
1
 40
1
 40
1
 10
245.818554
 20
225.304215
 30
0.0
 10
245.686657
 20
225.141621
 30
0.0
 10
245.574611
 20
223.058498
 30
0.0
 10
245.569565
 20
220.675052
 30
0.0
  0
SPLINE
  5
130
100
AcDbEntity
  8
Image
 62
7
100
AcDbSpline
 70
8
 71
3
 72
8
 73
4
 74
0
 40
0
 40
0
 40
0
 40
0
 40
1
 40
1
 40
1
 40
1
 10
245.569565
 20
220.675052
 30
0.0
 10
245.564512
 20
218.291606
 30
0.0
 10
245.458581
 20
216.239706
 30
0.0
 10
245.334150
 20
216.115276
 30
0.0
  0
SPLINE
  5
131
100
AcDbEntity
  8
Image
 62
7
100
AcDbSpline
 70
8
 71
3
 72
8
 73
4
 74
0
 40
0
 40
0
 40
0
 40
0
 40
1
 40
1
 40
1
 40
1
 10
245.334150
 20
216.115276
 30
0.0
 10
245.209719
 20
215.990845
 30
0.0
 10
241.778187
 20
215.857344
 30
0.0
 10
237.708522
 20
215.818606
 30
0.0
  0
LWPOLYLINE
  5
132
100
AcDbEntity
  8
Image
 62
7
100
AcDbPolyline
 90
3
 70
0
 10
230.224931
 20
227.208689
 30
0.0
 10
230.309132
 20
226.331507
 30
0.0
 10
237.827701
 20
226.261165
 30
0.0
  0
SPLINE
  5
133
100
AcDbEntity
  8
Image
 62
7
100
AcDbSpline
 70
8
 71
3
 72
8
 73
4
 74
0
 40
0
 40
0
 40
0
 40
0
 40
1
 40
1
 40
1
 40
1
 10
230.224933
 20
214.870996
 30
0.0
 10
230.066757
 20
213.223115
 30
0.0
 10
230.010999
 20
213.234632
 30
0.0
 10
238.146736
 20
213.234632
 30
0.0
  0
LWPOLYLINE
  5
134
100
AcDbEntity
  8
Image
 62
7
100
AcDbPolyline
 90
3
 70
0
 10
237.708522
 20
215.818606
 30
0.0
 10
230.309132
 20
215.748174
 30
0.0
 10
230.224933
 20
214.870996
 30
0.0
  0
SPLINE
  5
135
100
AcDbEntity
  8
Image
 62
7
100
AcDbSpline
 70
8
 71
3
 72
8
 73
4
 74
0
 40
0
 40
0
 40
0
 40
0
 40
1
 40
1
 40
1
 40
1
 10
245.522673
 20
208.789632
 30
0.0
 10
245.522673
 20
205.685189
 30
0.0
 10
245.618426
 20
204.248880
 30
0.0
 10
245.840173
 20
204.027132
 30
0.0
  0
SPLINE
  5
136
100
AcDbEntity
  8
Image
 62
7
100
AcDbSpline
 70
8
 71
3
 72
8
 73
4
 74
0
 40
0
 40
0
 40
0
 40
0
 40
1
 40
1
 40
1
 40
1
 10
245.840173
 20
204.027132
 30
0.0
 10
246.087117
 20
203.780189
 30
0.0
 10
246.013624
 20
203.708442
 30
0.0
 10
245.509444
 20
203.704280
 30
0.0
  0
SPLINE
  5
137
100
AcDbEntity
  8
Image
 62
7
100
AcDbSpline
 70
8
 71
3
 72
8
 73
4
 74
0
 40
0
 40
0
 40
0
 40
0
 40
1
 40
1
 40
1
 40
1
 10
245.509444
 20
203.704280
 30
0.0
 10
245.152918
 20
203.701343
 30
0.0
 10
241.765590
 20
203.687426
 30
0.0
 10
237.982048
 20
203.673387
 30
0.0
  0
SPLINE
  5
138
100
AcDbEntity
  8
Image
 62
7
100
AcDbSpline
 70
8
 71
3
 72
8
 73
4
 74
0
 40
0
 40
0
 40
0
 40
0
 40
1
 40
1
 40
1
 40
1
 10
237.982048
 20
203.673387
 30
0.0
 10
234.198507
 20
203.659338
 30
0.0
 10
230.894522
 20
203.538497
 30
0.0
 10
230.639861
 20
203.404848
 30
0.0
  0
SPLINE
  5
139
100
AcDbEntity
  8
Image
 62
7
100
AcDbSpline
 70
8
 71
3
 72
8
 73
4
 74
0
 40
0
 40
0
 40
0
 40
0
 40
1
 40
1
 40
1
 40
1
 10
230.639861
 20
203.404848
 30
0.0
 10
230.160454
 20
203.153248
 30
0.0
 10
230.016907
 20
201.989806
 30
0.0
 10
230.392340
 20
201.398738
 30
0.0
  0
SPLINE
  5
13a
100
AcDbEntity
  8
Image
 62
7
100
AcDbSpline
 70
8
 71
3
 72
8
 73
4
 74
0
 40
0
 40
0
 40
0
 40
0
 40
1
 40
1
 40
1
 40
1
 10
230.392340
 20
201.398738
 30
0.0
 10
230.547032
 20
201.155202
 30
0.0
 10
232.496085
 20
201.054340
 30
0.0
 10
238.061418
 20
201.001863
 30
0.0
  0
SPLINE
  5
13b
100
AcDbEntity
  8
Image
 62
7
100
AcDbSpline
 70
8
 71
3
 72
8
 73
4
 74
0
 40
0
 40
0
 40
0
 40
0
 40
1
 40
1
 40
1
 40
1
 10
238.061418
 20
201.001863
 30
0.0
 10
242.793573
 20
200.957244
 30
0.0
 10
245.531248
 20
200.834720
 30
0.0
 10
245.545382
 20
200.666924
 30
0.0
  0
SPLINE
  5
13c
100
AcDbEntity
  8
Image
 62
7
100
AcDbSpline
 70
8
 71
3
 72
8
 73
4
 74
0
 40
0
 40
0
 40
0
 40
0
 40
1
 40
1
 40
1
 40
1
 10
245.545382
 20
200.666924
 30
0.0
 10
245.557633
 20
200.521403
 30
0.0
 10
245.698719
 20
200.244437
 30
0.0
 10
245.858887
 20
200.051445
 30
0.0
  0
SPLINE
  5
13d
100
AcDbEntity
  8
Image
 62
7
100
AcDbSpline
 70
8
 71
3
 72
8
 73
4
 74
0
 40
0
 40
0
 40
0
 40
0
 40
1
 40
1
 40
1
 40
1
 10
245.858887
 20
200.051445
 30
0.0
 10
246.073922
 20
199.792349
 30
0.0
 10
246.059627
 20
199.644635
 30
0.0
 10
245.804253
 20
199.486803
 30
0.0
  0
SPLINE
  5
13e
100
AcDbEntity
  8
Image
 62
7
100
AcDbSpline
 70
8
 71
3
 72
8
 73
4
 74
0
 40
0
 40
0
 40
0
 40
0
 40
1
 40
1
 40
1
 40
1
 10
245.804253
 20
199.486803
 30
0.0
 10
245.536318
 20
199.321211
 30
0.0
 10
245.485891
 20
198.434005
 30
0.0
 10
245.580427
 20
195.548734
 30
0.0
  0
SPLINE
  5
13f
100
AcDbEntity
  8
Image
 62
7
100
AcDbSpline
 70
8
 71
3
 72
8
 73
4
 74
0
 40
0
 40
0
 40
0
 40
0
 40
1
 40
1
 40
1
 40
1
 10
245.580427
 20
195.548734
 30
0.0
 10
245.658659
 20
193.161023
 30
0.0
 10
245.603710
 20
191.725682
 30
0.0
 10
245.427354
 20
191.549314
 30
0.0
  0
SPLINE
  5
140
100
AcDbEntity
  8
Image
 62
7
100
AcDbSpline
 70
8
 71
3
 72
8
 73
4
 74
0
 40
0
 40
0
 40
0
 40
0
 40
1
 40
1
 40
1
 40
1
 10
245.427354
 20
191.549314
 30
0.0
 10
244.991088
 20
191.113048
 30
0.0
 10
18.395543
 20
191.168486
 30
0.0
 10
18.044002
 20
191.604945
 30
0.0
  0
LWPOLYLINE
  5
141
100
AcDbEntity
  8
Image
 62
7
100
AcDbPolyline
 90
3
 70
0
 10
238.146736
 20
213.234632
 30
0.0
 10
245.522673
 20
213.234632
 30
0.0
 10
245.522673
 20
208.789632
 30
0.0
  0
SPLINE
  5
142
100
AcDbEntity
  8
Image
 62
7
100
AcDbSpline
 70
8
 71
3
 72
8
 73
4
 74
0
 40
0
 40
0
 40
0
 40
0
 40
1
 40
1
 40
1
 40
1
 10
65.738304
 20
197.799455
 30
0.0
 10
66.029345
 20
197.878197
 30
0.0
 10
66.862783
 20
198.041376
 30
0.0
 10
67.590387
 20
198.162077
 30
0.0
  0
SPLINE
  5
143
100
AcDbEntity
  8
Image
 62
7
100
AcDbSpline
 70
8
 71
3
 72
8
 73
4
 74
0
 40
0
 40
0
 40
0
 40
0
 40
1
 40
1
 40
1
 40
1
 10
67.590387
 20
198.162077
 30
0.0
 10
69.421261
 20
198.465795
 30
0.0
 10
70.409636
 20
198.686573
 30
0.0
 10
71.029970
 20
198.930400
 30
0.0
  0
SPLINE
  5
144
100
AcDbEntity
  8
Image
 62
7
100
AcDbSpline
 70
8
 71
3
 72
8
 73
4
 74
0
 40
0
 40
0
 40
0
 40
0
 40
1
 40
1
 40
1
 40
1
 10
71.029970
 20
198.930400
 30
0.0
 10
71.321012
 20
199.044795
 30
0.0
 10
72.035387
 20
199.290104
 30
0.0
 10
72.617470
 20
199.475529
 30
0.0
  0
SPLINE
  5
145
100
AcDbEntity
  8
Image
 62
7
100
AcDbSpline
 70
8
 71
3
 72
8
 73
4
 74
0
 40
0
 40
0
 40
0
 40
0
 40
1
 40
1
 40
1
 40
1
 10
72.617470
 20
199.475529
 30
0.0
 10
75.811139
 20
200.492889
 30
0.0
 10
80.100866
 20
203.056535
 30
0.0
 10
82.194448
 20
205.198967
 30
0.0
  0
SPLINE
  5
146
100
AcDbEntity
  8
Image
 62
7
100
AcDbSpline
 70
8
 71
3
 72
8
 73
4
 74
0
 40
0
 40
0
 40
0
 40
0
 40
1
 40
1
 40
1
 40
1
 10
82.194448
 20
205.198967
 30
0.0
 10
83.852996
 20
206.896213
 30
0.0
 10
85.431860
 20
208.970137
 30
0.0
 10
85.612089
 20
209.688226
 30
0.0
  0
SPLINE
  5
147
100
AcDbEntity
  8
Image
 62
7
100
AcDbSpline
 70
8
 71
3
 72
8
 73
4
 74
0
 40
0
 40
0
 40
0
 40
0
 40
1
 40
1
 40
1
 40
1
 10
85.612089
 20
209.688226
 30
0.0
 10
85.699880
 20
210.038021
 30
0.0
 10
85.877866
 20
210.324216
 30
0.0
 10
86.007612
 20
210.324216
 30
0.0
  0
SPLINE
  5
148
100
AcDbEntity
  8
Image
 62
7
100
AcDbSpline
 70
8
 71
3
 72
8
 73
4
 74
0
 40
0
 40
0
 40
0
 40
0
 40
1
 40
1
 40
1
 40
1
 10
86.007612
 20
210.324216
 30
0.0
 10
86.137356
 20
210.324216
 30
0.0
 10
86.243512
 20
210.538528
 30
0.0
 10
86.243512
 20
210.800466
 30
0.0
  0
SPLINE
  5
149
100
AcDbEntity
  8
Image
 62
7
100
AcDbSpline
 70
8
 71
3
 72
8
 73
4
 74
0
 40
0
 40
0
 40
0
 40
0
 40
1
 40
1
 40
1
 40
1
 10
86.243512
 20
210.800466
 30
0.0
 10
86.243512
 20
211.062403
 30
0.0
 10
86.356433
 20
211.389825
 30
0.0
 10
86.494451
 20
211.528070
 30
0.0
  0
SPLINE
  5
14a
100
AcDbEntity
  8
Image
 62
7
100
AcDbSpline
 70
8
 71
3
 72
8
 73
4
 74
0
 40
0
 40
0
 40
0
 40
0
 40
1
 40
1
 40
1
 40
1
 10
86.494451
 20
211.528070
 30
0.0
 10
86.834049
 20
211.868229
 30
0.0
 10
87.452745
 20
214.311066
 30
0.0
 10
87.830552
 20
216.803467
 30
0.0
  0
SPLINE
  5
14b
100
AcDbEntity
  8
Image
 62
7
100
AcDbSpline
 70
8
 71
3
 72
8
 73
4
 74
0
 40
0
 40
0
 40
0
 40
0
 40
1
 40
1
 40
1
 40
1
 10
87.830552
 20
216.803467
 30
0.0
 10
88.169504
 20
219.039548
 30
0.0
 10
87.871713
 20
221.684453
 30
0.0
 10
87.121563
 20
223.100543
 30
0.0
  0
SPLINE
  5
14c
100
AcDbEntity
  8
Image
 62
7
100
AcDbSpline
 70
8
 71
3
 72
8
 73
4
 74
0
 40
0
 40
0
 40
0
 40
0
 40
1
 40
1
 40
1
 40
1
 10
87.121563
 20
223.100543
 30
0.0
 10
86.906605
 20
223.506324
 30
0.0
 10
86.563806
 20
224.161167
 30
0.0
 10
86.359786
 20
224.555751
 30
0.0
  0
SPLINE
  5
14d
100
AcDbEntity
  8
Image
 62
7
100
AcDbSpline
 70
8
 71
3
 72
8
 73
4
 74
0
 40
0
 40
0
 40
0
 40
0
 40
1
 40
1
 40
1
 40
1
 10
86.359786
 20
224.555751
 30
0.0
 10
85.956883
 20
225.334970
 30
0.0
 10
83.902637
 20
227.522132
 30
0.0
 10
83.573673
 20
227.522132
 30
0.0
  0
SPLINE
  5
14e
100
AcDbEntity
  8
Image
 62
7
100
AcDbSpline
 70
8
 71
3
 72
8
 73
4
 74
0
 40
0
 40
0
 40
0
 40
0
 40
1
 40
1
 40
1
 40
1
 10
83.573673
 20
227.522132
 30
0.0
 10
83.462143
 20
227.522132
 30
0.0
 10
83.213559
 20
227.676041
 30
0.0
 10
83.021265
 20
227.864149
 30
0.0
  0
SPLINE
  5
14f
100
AcDbEntity
  8
Image
 62
7
100
AcDbSpline
 70
8
 71
3
 72
8
 73
4
 74
0
 40
0
 40
0
 40
0
 40
0
 40
1
 40
1
 40
1
 40
1
 10
83.021265
 20
227.864149
 30
0.0
 10
82.536858
 20
228.338007
 30
0.0
 10
79.530284
 20
229.732112
 30
0.0
 10
77.776845
 20
230.295910
 30
0.0
  0
SPLINE
  5
150
100
AcDbEntity
  8
Image
 62
7
100
AcDbSpline
 70
8
 71
3
 72
8
 73
4
 74
0
 40
0
 40
0
 40
0
 40
0
 40
1
 40
1
 40
1
 40
1
 10
77.776845
 20
230.295910
 30
0.0
 10
76.976481
 20
230.553257
 30
0.0
 10
76.048145
 20
230.867873
 30
0.0
 10
75.713876
 20
230.995056
 30
0.0
  0
SPLINE
  5
151
100
AcDbEntity
  8
Image
 62
7
100
AcDbSpline
 70
8
 71
3
 72
8
 73
4
 74
0
 40
0
 40
0
 40
0
 40
0
 40
1
 40
1
 40
1
 40
1
 10
75.713876
 20
230.995056
 30
0.0
 10
75.379606
 20
231.122241
 30
0.0
 10
74.821087
 20
231.226299
 30
0.0
 10
74.472718
 20
231.226299
 30
0.0
  0
SPLINE
  5
152
100
AcDbEntity
  8
Image
 62
7
100
AcDbSpline
 70
8
 71
3
 72
8
 73
4
 74
0
 40
0
 40
0
 40
0
 40
0
 40
1
 40
1
 40
1
 40
1
 10
74.472718
 20
231.226299
 30
0.0
 10
74.124352
 20
231.226299
 30
0.0
 10
73.765741
 20
231.345362
 30
0.0
 10
73.675804
 20
231.490882
 30
0.0
  0
SPLINE
  5
153
100
AcDbEntity
  8
Image
 62
7
100
AcDbSpline
 70
8
 71
3
 72
8
 73
4
 74
0
 40
0
 40
0
 40
0
 40
0
 40
1
 40
1
 40
1
 40
1
 10
73.675804
 20
231.490882
 30
0.0
 10
73.585866
 20
231.636403
 30
0.0
 10
73.050085
 20
231.755466
 30
0.0
 10
72.485179
 20
231.755466
 30
0.0
  0
SPLINE
  5
154
100
AcDbEntity
  8
Image
 62
7
100
AcDbSpline
 70
8
 71
3
 72
8
 73
4
 74
0
 40
0
 40
0
 40
0
 40
0
 40
1
 40
1
 40
1
 40
1
 10
72.485179
 20
231.755466
 30
0.0
 10
71.920272
 20
231.755466
 30
0.0
 10
71.392621
 20
231.861373
 30
0.0
 10
71.312622
 20
231.990815
 30
0.0
  0
SPLINE
  5
155
100
AcDbEntity
  8
Image
 62
7
100
AcDbSpline
 70
8
 71
3
 72
8
 73
4
 74
0
 40
0
 40
0
 40
0
 40
0
 40
1
 40
1
 40
1
 40
1
 10
71.312622
 20
231.990815
 30
0.0
 10
71.232620
 20
232.120257
 30
0.0
 10
70.779111
 20
232.283863
 30
0.0
 10
70.304819
 20
232.354382
 30
0.0
  0
SPLINE
  5
156
100
AcDbEntity
  8
Image
 62
7
100
AcDbSpline
 70
8
 71
3
 72
8
 73
4
 74
0
 40
0
 40
0
 40
0
 40
0
 40
1
 40
1
 40
1
 40
1
 10
70.304819
 20
232.354382
 30
0.0
 10
69.216757
 20
232.516159
 30
0.0
 10
65.456022
 20
233.549010
 30
0.0
 10
64.862178
 20
233.849156
 30
0.0
  0
SPLINE
  5
157
100
AcDbEntity
  8
Image
 62
7
100
AcDbSpline
 70
8
 71
3
 72
8
 73
4
 74
0
 40
0
 40
0
 40
0
 40
0
 40
1
 40
1
 40
1
 40
1
 10
64.862178
 20
233.849156
 30
0.0
 10
64.616444
 20
233.973357
 30
0.0
 10
64.059853
 20
234.237697
 30
0.0
 10
63.625312
 20
234.436576
 30
0.0
  0
SPLINE
  5
158
100
AcDbEntity
  8
Image
 62
7
100
AcDbSpline
 70
8
 71
3
 72
8
 73
4
 74
0
 40
0
 40
0
 40
0
 40
0
 40
1
 40
1
 40
1
 40
1
 10
63.625312
 20
234.436576
 30
0.0
 10
62.092348
 20
235.138177
 30
0.0
 10
60.843512
 20
236.662415
 30
0.0
 10
60.843512
 20
237.831836
 30
0.0
  0
SPLINE
  5
159
100
AcDbEntity
  8
Image
 62
7
100
AcDbSpline
 70
8
 71
3
 72
8
 73
4
 74
0
 40
0
 40
0
 40
0
 40
0
 40
1
 40
1
 40
1
 40
1
 10
60.843512
 20
237.831836
 30
0.0
 10
60.843512
 20
238.555710
 30
0.0
 10
61.921041
 20
240.557950
 30
0.0
 10
62.596564
 20
241.089318
 30
0.0
  0
SPLINE
  5
15a
100
AcDbEntity
  8
Image
 62
7
100
AcDbSpline
 70
8
 71
3
 72
8
 73
4
 74
0
 40
0
 40
0
 40
0
 40
0
 40
1
 40
1
 40
1
 40
1
 10
62.596564
 20
241.089318
 30
0.0
 10
62.943645
 20
241.362328
 30
0.0
 10
63.375802
 20
241.727493
 30
0.0
 10
63.556920
 20
241.900792
 30
0.0
  0
SPLINE
  5
15b
100
AcDbEntity
  8
Image
 62
7
100
AcDbSpline
 70
8
 71
3
 72
8
 73
4
 74
0
 40
0
 40
0
 40
0
 40
0
 40
1
 40
1
 40
1
 40
1
 10
63.556920
 20
241.900792
 30
0.0
 10
63.986952
 20
242.312264
 30
0.0
 10
65.686292
 20
243.005565
 30
0.0
 10
67.236737
 20
243.402093
 30
0.0
  0
SPLINE
  5
15c
100
AcDbEntity
  8
Image
 62
7
100
AcDbSpline
 70
8
 71
3
 72
8
 73
4
 74
0
 40
0
 40
0
 40
0
 40
0
 40
1
 40
1
 40
1
 40
1
 10
67.236737
 20
243.402093
 30
0.0
 10
68.278417
 20
243.668505
 30
0.0
 10
68.791444
 20
243.642010
 30
0.0
 10
70.530683
 20
243.231985
 30
0.0
  0
SPLINE
  5
15d
100
AcDbEntity
  8
Image
 62
7
100
AcDbSpline
 70
8
 71
3
 72
8
 73
4
 74
0
 40
0
 40
0
 40
0
 40
0
 40
1
 40
1
 40
1
 40
1
 10
70.530683
 20
243.231985
 30
0.0
 10
73.184729
 20
242.606293
 30
0.0
 10
74.436367
 20
241.528042
 30
0.0
 10
74.714682
 20
239.627598
 30
0.0
  0
SPLINE
  5
15e
100
AcDbEntity
  8
Image
 62
7
100
AcDbSpline
 70
8
 71
3
 72
8
 73
4
 74
0
 40
0
 40
0
 40
0
 40
0
 40
1
 40
1
 40
1
 40
1
 10
74.714682
 20
239.627598
 30
0.0
 10
74.815848
 20
238.936800
 30
0.0
 10
74.824159
 20
238.251127
 30
0.0
 10
74.733150
 20
238.103876
 30
0.0
  0
SPLINE
  5
15f
100
AcDbEntity
  8
Image
 62
7
100
AcDbSpline
 70
8
 71
3
 72
8
 73
4
 74
0
 40
0
 40
0
 40
0
 40
0
 40
1
 40
1
 40
1
 40
1
 10
74.733150
 20
238.103876
 30
0.0
 10
74.642147
 20
237.956624
 30
0.0
 10
74.642927
 20
237.599088
 30
0.0
 10
74.735002
 20
237.309348
 30
0.0
  0
SPLINE
  5
160
100
AcDbEntity
  8
Image
 62
7
100
AcDbSpline
 70
8
 71
3
 72
8
 73
4
 74
0
 40
0
 40
0
 40
0
 40
0
 40
1
 40
1
 40
1
 40
1
 10
74.735002
 20
237.309348
 30
0.0
 10
74.896845
 20
236.799424
 30
0.0
 10
75.145977
 20
236.782549
 30
0.0
 10
82.512580
 20
236.782549
 30
0.0
  0
LWPOLYLINE
  5
161
100
AcDbEntity
  8
Image
 62
7
100
AcDbPolyline
 90
1
 70
1
 10
18.044002
 20
191.604945
 30
0.0
  0
SPLINE
  5
162
100
AcDbEntity
  8
Image
 62
7
100
AcDbSpline
 70
8
 71
3
 72
8
 73
4
 74
0
 40
0
 40
0
 40
0
 40
0
 40
1
 40
1
 40
1
 40
1
 10
90.435695
 20
237.377862
 30
0.0
 10
91.133718
 20
238.706594
 30
0.0
 10
91.214853
 20
243.822186
 30
0.0
 10
90.568111
 20
245.727114
 30
0.0
  0
SPLINE
  5
163
100
AcDbEntity
  8
Image
 62
7
100
AcDbSpline
 70
8
 71
3
 72
8
 73
4
 74
0
 40
0
 40
0
 40
0
 40
0
 40
1
 40
1
 40
1
 40
1
 10
90.568111
 20
245.727114
 30
0.0
 10
90.143314
 20
246.978323
 30
0.0
 10
89.215180
 20
248.597232
 30
0.0
 10
88.553073
 20
249.241858
 30
0.0
  0
SPLINE
  5
164
100
AcDbEntity
  8
Image
 62
7
100
AcDbSpline
 70
8
 71
3
 72
8
 73
4
 74
0
 40
0
 40
0
 40
0
 40
0
 40
1
 40
1
 40
1
 40
1
 10
88.553073
 20
249.241858
 30
0.0
 10
87.186019
 20
250.572712
 30
0.0
 10
86.203293
 20
251.334632
 30
0.0
 10
85.853688
 20
251.334632
 30
0.0
  0
SPLINE
  5
165
100
AcDbEntity
  8
Image
 62
7
100
AcDbSpline
 70
8
 71
3
 72
8
 73
4
 74
0
 40
0
 40
0
 40
0
 40
0
 40
1
 40
1
 40
1
 40
1
 10
85.853688
 20
251.334632
 30
0.0
 10
85.631528
 20
251.334632
 30
0.0
 10
85.449762
 20
251.424631
 30
0.0
 10
85.449762
 20
251.534628
 30
0.0
  0
SPLINE
  5
166
100
AcDbEntity
  8
Image
 62
7
100
AcDbSpline
 70
8
 71
3
 72
8
 73
4
 74
0
 40
0
 40
0
 40
0
 40
0
 40
1
 40
1
 40
1
 40
1
 10
85.449762
 20
251.534628
 30
0.0
 10
85.449762
 20
251.728809
 30
0.0
 10
85.036274
 20
251.940187
 30
0.0
 10
83.034759
 20
252.769206
 30
0.0
  0
SPLINE
  5
167
100
AcDbEntity
  8
Image
 62
7
100
AcDbSpline
 70
8
 71
3
 72
8
 73
4
 74
0
 40
0
 40
0
 40
0
 40
0
 40
1
 40
1
 40
1
 40
1
 10
83.034759
 20
252.769206
 30
0.0
 10
81.326675
 20
253.476686
 30
0.0
 10
78.083532
 20
254.245049
 30
0.0
 10
76.805449
 20
254.245049
 30
0.0
  0
SPLINE
  5
168
100
AcDbEntity
  8
Image
 62
7
100
AcDbSpline
 70
8
 71
3
 72
8
 73
4
 74
0
 40
0
 40
0
 40
0
 40
0
 40
1
 40
1
 40
1
 40
1
 10
76.805449
 20
254.245049
 30
0.0
 10
76.120310
 20
254.245049
 30
0.0
 10
74.882375
 20
254.384956
 30
0.0
 10
74.054483
 20
254.555956
 30
0.0
  0
SPLINE
  5
169
100
AcDbEntity
  8
Image
 62
7
100
AcDbSpline
 70
8
 71
3
 72
8
 73
4
 74
0
 40
0
 40
0
 40
0
 40
0
 40
1
 40
1
 40
1
 40
1
 10
74.054483
 20
254.555956
 30
0.0
 10
71.535369
 20
255.076269
 30
0.0
 10
63.813693
 20
254.193873
 30
0.0
 10
59.520595
 20
252.895092
 30
0.0
  0
SPLINE
  5
16a
100
AcDbEntity
  8
Image
 62
7
100
AcDbSpline
 70
8
 71
3
 72
8
 73
4
 74
0
 40
0
 40
0
 40
0
 40
0
 40
1
 40
1
 40
1
 40
1
 10
59.520595
 20
252.895092
 30
0.0
 10
52.932401
 20
250.901981
 30
0.0
 10
48.103975
 20
246.929040
 30
0.0
 10
45.674177
 20
241.501943
 30
0.0
  0
SPLINE
  5
16b
100
AcDbEntity
  8
Image
 62
7
100
AcDbSpline
 70
8
 71
3
 72
8
 73
4
 74
0
 40
0
 40
0
 40
0
 40
0
 40
1
 40
1
 40
1
 40
1
 10
45.674177
 20
241.501943
 30
0.0
 10
44.591753
 20
239.084287
 30
0.0
 10
44.439345
 20
238.632815
 30
0.0
 10
44.439345
 20
237.844047
 30
0.0
  0
SPLINE
  5
16c
100
AcDbEntity
  8
Image
 62
7
100
AcDbSpline
 70
8
 71
3
 72
8
 73
4
 74
0
 40
0
 40
0
 40
0
 40
0
 40
1
 40
1
 40
1
 40
1
 10
44.439345
 20
237.844047
 30
0.0
 10
44.439345
 20
237.422920
 30
0.0
 10
44.320283
 20
237.004778
 30
0.0
 10
44.174762
 20
236.914841
 30
0.0
  0
SPLINE
  5
16d
100
AcDbEntity
  8
Image
 62
7
100
AcDbSpline
 70
8
 71
3
 72
8
 73
4
 74
0
 40
0
 40
0
 40
0
 40
0
 40
1
 40
1
 40
1
 40
1
 10
44.174762
 20
236.914841
 30
0.0
 10
43.829245
 20
236.701301
 30
0.0
 10
43.829245
 20
231.836714
 30
0.0
 10
44.174762
 20
231.623174
 30
0.0
  0
SPLINE
  5
16e
100
AcDbEntity
  8
Image
 62
7
100
AcDbSpline
 70
8
 71
3
 72
8
 73
4
 74
0
 40
0
 40
0
 40
0
 40
0
 40
1
 40
1
 40
1
 40
1
 10
44.174762
 20
231.623174
 30
0.0
 10
44.320283
 20
231.533237
 30
0.0
 10
44.439345
 20
231.173248
 30
0.0
 10
44.439345
 20
230.823199
 30
0.0
  0
SPLINE
  5
16f
100
AcDbEntity
  8
Image
 62
7
100
AcDbSpline
 70
8
 71
3
 72
8
 73
4
 74
0
 40
0
 40
0
 40
0
 40
0
 40
1
 40
1
 40
1
 40
1
 10
44.439345
 20
230.823199
 30
0.0
 10
44.439345
 20
229.846291
 30
0.0
 10
45.679709
 20
227.785795
 30
0.0
 10
47.065041
 20
226.461384
 30
0.0
  0
SPLINE
  5
170
100
AcDbEntity
  8
Image
 62
7
100
AcDbSpline
 70
8
 71
3
 72
8
 73
4
 74
0
 40
0
 40
0
 40
0
 40
0
 40
1
 40
1
 40
1
 40
1
 10
47.065041
 20
226.461384
 30
0.0
 10
48.496744
 20
225.092641
 30
0.0
 10
51.759993
 20
223.379882
 30
0.0
 10
54.625804
 20
222.493022
 30
0.0
  0
SPLINE
  5
171
100
AcDbEntity
  8
Image
 62
7
100
AcDbSpline
 70
8
 71
3
 72
8
 73
4
 74
0
 40
0
 40
0
 40
0
 40
0
 40
1
 40
1
 40
1
 40
1
 10
54.625804
 20
222.493022
 30
0.0
 10
55.207887
 20
222.312889
 30
0.0
 10
55.890880
 20
222.061061
 30
0.0
 10
56.143567
 20
221.933402
 30
0.0
  0
SPLINE
  5
172
100
AcDbEntity
  8
Image
 62
7
100
AcDbSpline
 70
8
 71
3
 72
8
 73
4
 74
0
 40
0
 40
0
 40
0
 40
0
 40
1
 40
1
 40
1
 40
1
 10
56.143567
 20
221.933402
 30
0.0
 10
56.396255
 20
221.805746
 30
0.0
 10
56.895243
 20
221.701299
 30
0.0
 10
57.252431
 20
221.701299
 30
0.0
  0
SPLINE
  5
173
100
AcDbEntity
  8
Image
 62
7
100
AcDbSpline
 70
8
 71
3
 72
8
 73
4
 74
0
 40
0
 40
0
 40
0
 40
0
 40
1
 40
1
 40
1
 40
1
 10
57.252431
 20
221.701299
 30
0.0
 10
57.609621
 20
221.701299
 30
0.0
 10
57.967676
 20
221.594812
 30
0.0
 10
58.048115
 20
221.464664
 30
0.0
  0
SPLINE
  5
174
100
AcDbEntity
  8
Image
 62
7
100
AcDbSpline
 70
8
 71
3
 72
8
 73
4
 74
0
 40
0
 40
0
 40
0
 40
0
 40
1
 40
1
 40
1
 40
1
 10
58.048115
 20
221.464664
 30
0.0
 10
58.128551
 20
221.334515
 30
0.0
 10
58.641591
 20
221.165618
 30
0.0
 10
59.188207
 20
221.089334
 30
0.0
  0
SPLINE
  5
175
100
AcDbEntity
  8
Image
 62
7
100
AcDbSpline
 70
8
 71
3
 72
8
 73
4
 74
0
 40
0
 40
0
 40
0
 40
0
 40
1
 40
1
 40
1
 40
1
 10
59.188207
 20
221.089334
 30
0.0
 10
59.734823
 20
221.013052
 30
0.0
 10
60.688069
 20
220.821882
 30
0.0
 10
61.306533
 20
220.664511
 30
0.0
  0
SPLINE
  5
176
100
AcDbEntity
  8
Image
 62
7
100
AcDbSpline
 70
8
 71
3
 72
8
 73
4
 74
0
 40
0
 40
0
 40
0
 40
0
 40
1
 40
1
 40
1
 40
1
 10
61.306533
 20
220.664511
 30
0.0
 10
61.924996
 20
220.507139
 30
0.0
 10
62.877496
 20
220.272031
 30
0.0
 10
63.423199
 20
220.142043
 30
0.0
  0
SPLINE
  5
177
100
AcDbEntity
  8
Image
 62
7
100
AcDbSpline
 70
8
 71
3
 72
8
 73
4
 74
0
 40
0
 40
0
 40
0
 40
0
 40
1
 40
1
 40
1
 40
1
 10
63.423199
 20
220.142043
 30
0.0
 10
64.961458
 20
219.775627
 30
0.0
 10
67.822043
 20
218.695413
 30
0.0
 10
68.594584
 20
218.189225
 30
0.0
  0
SPLINE
  5
178
100
AcDbEntity
  8
Image
 62
7
100
AcDbSpline
 70
8
 71
3
 72
8
 73
4
 74
0
 40
0
 40
0
 40
0
 40
0
 40
1
 40
1
 40
1
 40
1
 10
68.594584
 20
218.189225
 30
0.0
 10
68.977920
 20
217.938054
 30
0.0
 10
69.401246
 20
217.732549
 30
0.0
 10
69.535307
 20
217.732549
 30
0.0
  0
SPLINE
  5
179
100
AcDbEntity
  8
Image
 62
7
100
AcDbSpline
 70
8
 71
3
 72
8
 73
4
 74
0
 40
0
 40
0
 40
0
 40
0
 40
1
 40
1
 40
1
 40
1
 10
69.535307
 20
217.732549
 30
0.0
 10
69.941959
 20
217.732549
 30
0.0
 10
70.689846
 20
215.874656
 30
0.0
 10
70.693899
 20
214.854383
 30
0.0
  0
SPLINE
  5
17a
100
AcDbEntity
  8
Image
 62
7
100
AcDbSpline
 70
8
 71
3
 72
8
 73
4
 74
0
 40
0
 40
0
 40
0
 40
0
 40
1
 40
1
 40
1
 40
1
 10
70.693899
 20
214.854383
 30
0.0
 10
70.700170
 20
213.277117
 30
0.0
 10
70.340482
 20
212.379893
 30
0.0
 10
69.224657
 20
211.189393
 30
0.0
  0
SPLINE
  5
17b
100
AcDbEntity
  8
Image
 62
7
100
AcDbSpline
 70
8
 71
3
 72
8
 73
4
 74
0
 40
0
 40
0
 40
0
 40
0
 40
1
 40
1
 40
1
 40
1
 10
69.224657
 20
211.189393
 30
0.0
 10
68.642262
 20
210.568024
 30
0.0
 10
68.065483
 20
210.059632
 30
0.0
 10
67.942920
 20
210.059632
 30
0.0
  0
SPLINE
  5
17c
100
AcDbEntity
  8
Image
 62
7
100
AcDbSpline
 70
8
 71
3
 72
8
 73
4
 74
0
 40
0
 40
0
 40
0
 40
0
 40
1
 40
1
 40
1
 40
1
 10
67.942920
 20
210.059632
 30
0.0
 10
67.820360
 20
210.059632
 30
0.0
 10
67.095590
 20
209.754817
 30
0.0
 10
66.332320
 20
209.382267
 30
0.0
  0
SPLINE
  5
17d
100
AcDbEntity
  8
Image
 62
7
100
AcDbSpline
 70
8
 71
3
 72
8
 73
4
 74
0
 40
0
 40
0
 40
0
 40
0
 40
1
 40
1
 40
1
 40
1
 10
66.332320
 20
209.382267
 30
0.0
 10
65.081446
 20
208.771718
 30
0.0
 10
64.623035
 20
208.703053
 30
0.0
 10
61.685130
 20
208.686170
 30
0.0
  0
SPLINE
  5
17e
100
AcDbEntity
  8
Image
 62
7
100
AcDbSpline
 70
8
 71
3
 72
8
 73
4
 74
0
 40
0
 40
0
 40
0
 40
0
 40
1
 40
1
 40
1
 40
1
 10
61.685130
 20
208.686170
 30
0.0
 10
59.589432
 20
208.674131
 30
0.0
 10
58.318876
 20
208.774268
 30
0.0
 10
58.126484
 20
208.966660
 30
0.0
  0
SPLINE
  5
17f
100
AcDbEntity
  8
Image
 62
7
100
AcDbSpline
 70
8
 71
3
 72
8
 73
4
 74
0
 40
0
 40
0
 40
0
 40
0
 40
1
 40
1
 40
1
 40
1
 10
58.126484
 20
208.966660
 30
0.0
 10
57.961914
 20
209.131231
 30
0.0
 10
57.647652
 20
209.265882
 30
0.0
 10
57.428127
 20
209.265882
 30
0.0
  0
SPLINE
  5
180
100
AcDbEntity
  8
Image
 62
7
100
AcDbSpline
 70
8
 71
3
 72
8
 73
4
 74
0
 40
0
 40
0
 40
0
 40
0
 40
1
 40
1
 40
1
 40
1
 10
57.428127
 20
209.265882
 30
0.0
 10
57.208603
 20
209.265882
 30
0.0
 10
56.458509
 20
209.864000
 30
0.0
 10
55.761252
 20
210.595033
 30
0.0
  0
LWPOLYLINE
  5
181
100
AcDbEntity
  8
Image
 62
7
100
AcDbPolyline
 90
3
 70
0
 10
82.512580
 20
236.782549
 30
0.0
 10
90.122957
 20
236.782549
 30
0.0
 10
90.435695
 20
237.377862
 30
0.0
  0
SPLINE
  5
182
100
AcDbEntity
  8
Image
 62
7
100
AcDbSpline
 70
8
 71
3
 72
8
 73
4
 74
0
 40
0
 40
0
 40
0
 40
0
 40
1
 40
1
 40
1
 40
1
 10
46.952887
 20
216.184737
 30
0.0
 10
42.805543
 20
216.206565
 30
0.0
 10
39.265074
 20
216.236330
 30
0.0
 10
39.085176
 20
216.250882
 30
0.0
  0
SPLINE
  5
183
100
AcDbEntity
  8
Image
 62
7
100
AcDbSpline
 70
8
 71
3
 72
8
 73
4
 74
0
 40
0
 40
0
 40
0
 40
0
 40
1
 40
1
 40
1
 40
1
 10
39.085176
 20
216.250882
 30
0.0
 10
38.356797
 20
216.309803
 30
0.0
 10
37.956696
 20
210.412542
 30
0.0
 10
38.529993
 20
208.067780
 30
0.0
  0
SPLINE
  5
184
100
AcDbEntity
  8
Image
 62
7
100
AcDbSpline
 70
8
 71
3
 72
8
 73
4
 74
0
 40
0
 40
0
 40
0
 40
0
 40
1
 40
1
 40
1
 40
1
 10
38.529993
 20
208.067780
 30
0.0
 10
39.422316
 20
204.418221
 30
0.0
 10
41.860795
 20
201.533310
 30
0.0
 10
45.547719
 20
199.765269
 30
0.0
  0
SPLINE
  5
185
100
AcDbEntity
  8
Image
 62
7
100
AcDbSpline
 70
8
 71
3
 72
8
 73
4
 74
0
 40
0
 40
0
 40
0
 40
0
 40
1
 40
1
 40
1
 40
1
 10
45.547719
 20
199.765269
 30
0.0
 10
46.789515
 20
199.169774
 30
0.0
 10
48.036358
 20
198.682549
 30
0.0
 10
48.318481
 20
198.682549
 30
0.0
  0
SPLINE
  5
186
100
AcDbEntity
  8
Image
 62
7
100
AcDbSpline
 70
8
 71
3
 72
8
 73
4
 74
0
 40
0
 40
0
 40
0
 40
0
 40
1
 40
1
 40
1
 40
1
 10
48.318481
 20
198.682549
 30
0.0
 10
48.600601
 20
198.682549
 30
0.0
 10
48.944538
 20
198.575030
 30
0.0
 10
49.082783
 20
198.443617
 30
0.0
  0
SPLINE
  5
187
100
AcDbEntity
  8
Image
 62
7
100
AcDbSpline
 70
8
 71
3
 72
8
 73
4
 74
0
 40
0
 40
0
 40
0
 40
0
 40
1
 40
1
 40
1
 40
1
 10
49.082783
 20
198.443617
 30
0.0
 10
49.857083
 20
197.707586
 30
0.0
 10
63.454928
 20
197.181679
 30
0.0
 10
65.738304
 20
197.799455
 30
0.0
  0
LWPOLYLINE
  5
188
100
AcDbEntity
  8
Image
 62
7
100
AcDbPolyline
 90
5
 70
0
 10
55.761252
 20
210.595033
 30
0.0
 10
54.493512
 20
211.924180
 30
0.0
 10
54.493512
 20
214.034616
 30
0.0
 10
54.493512
 20
216.145049
 30
0.0
 10
46.952887
 20
216.184737
 30
0.0
  0
SPLINE
  5
189
100
AcDbEntity
  8
Image
 62
7
100
AcDbSpline
 70
8
 71
3
 72
8
 73
4
 74
0
 40
0
 40
0
 40
0
 40
0
 40
1
 40
1
 40
1
 40
1
 10
171.703929
 20
197.818055
 30
0.0
 10
171.922210
 20
197.900531
 30
0.0
 10
172.696116
 20
198.061051
 30
0.0
 10
173.423720
 20
198.174769
 30
0.0
  0
SPLINE
  5
18a
100
AcDbEntity
  8
Image
 62
7
100
AcDbSpline
 70
8
 71
3
 72
8
 73
4
 74
0
 40
0
 40
0
 40
0
 40
0
 40
1
 40
1
 40
1
 40
1
 10
173.423720
 20
198.174769
 30
0.0
 10
175.216624
 20
198.454981
 30
0.0
 10
176.232111
 20
198.680628
 30
0.0
 10
176.863304
 20
198.939071
 30
0.0
  0
SPLINE
  5
18b
100
AcDbEntity
  8
Image
 62
7
100
AcDbSpline
 70
8
 71
3
 72
8
 73
4
 74
0
 40
0
 40
0
 40
0
 40
0
 40
1
 40
1
 40
1
 40
1
 10
176.863304
 20
198.939071
 30
0.0
 10
177.154345
 20
199.058236
 30
0.0
 10
177.987783
 20
199.363092
 30
0.0
 10
178.715387
 20
199.616526
 30
0.0
  0
SPLINE
  5
18c
100
AcDbEntity
  8
Image
 62
7
100
AcDbSpline
 70
8
 71
3
 72
8
 73
4
 74
0
 40
0
 40
0
 40
0
 40
0
 40
1
 40
1
 40
1
 40
1
 10
178.715387
 20
199.616526
 30
0.0
 10
182.166689
 20
200.818660
 30
0.0
 10
185.581970
 20
202.818135
 30
0.0
 10
187.944384
 20
205.019640
 30
0.0
  0
SPLINE
  5
18d
100
AcDbEntity
  8
Image
 62
7
100
AcDbSpline
 70
8
 71
3
 72
8
 73
4
 74
0
 40
0
 40
0
 40
0
 40
0
 40
1
 40
1
 40
1
 40
1
 10
187.944384
 20
205.019640
 30
0.0
 10
190.284764
 20
207.200616
 30
0.0
 10
193.135179
 20
212.148573
 30
0.0
 10
193.135179
 20
214.030208
 30
0.0
  0
SPLINE
  5
18e
100
AcDbEntity
  8
Image
 62
7
100
AcDbSpline
 70
8
 71
3
 72
8
 73
4
 74
0
 40
0
 40
0
 40
0
 40
0
 40
1
 40
1
 40
1
 40
1
 10
193.135179
 20
214.030208
 30
0.0
 10
193.135179
 20
214.448588
 30
0.0
 10
193.254241
 20
214.864487
 30
0.0
 10
193.399762
 20
214.954424
 30
0.0
  0
SPLINE
  5
18f
100
AcDbEntity
  8
Image
 62
7
100
AcDbSpline
 70
8
 71
3
 72
8
 73
4
 74
0
 40
0
 40
0
 40
0
 40
0
 40
1
 40
1
 40
1
 40
1
 10
193.399762
 20
214.954424
 30
0.0
 10
193.781992
 20
215.190657
 30
0.0
 10
193.724945
 20
221.109961
 30
0.0
 10
193.329631
 20
222.231106
 30
0.0
  0
SPLINE
  5
190
100
AcDbEntity
  8
Image
 62
7
100
AcDbSpline
 70
8
 71
3
 72
8
 73
4
 74
0
 40
0
 40
0
 40
0
 40
0
 40
1
 40
1
 40
1
 40
1
 10
193.329631
 20
222.231106
 30
0.0
 10
192.550135
 20
224.441837
 30
0.0
 10
190.674204
 20
226.853978
 30
0.0
 10
188.967372
 20
227.840254
 30
0.0
  0
SPLINE
  5
191
100
AcDbEntity
  8
Image
 62
7
100
AcDbSpline
 70
8
 71
3
 72
8
 73
4
 74
0
 40
0
 40
0
 40
0
 40
0
 40
1
 40
1
 40
1
 40
1
 10
188.967372
 20
227.840254
 30
0.0
 10
187.210076
 20
228.855691
 30
0.0
 10
184.568293
 20
230.064688
 30
0.0
 10
183.345595
 20
230.413033
 30
0.0
  0
SPLINE
  5
192
100
AcDbEntity
  8
Image
 62
7
100
AcDbSpline
 70
8
 71
3
 72
8
 73
4
 74
0
 40
0
 40
0
 40
0
 40
0
 40
1
 40
1
 40
1
 40
1
 10
183.345595
 20
230.413033
 30
0.0
 10
182.690751
 20
230.599596
 30
0.0
 10
181.881478
 20
230.858904
 30
0.0
 10
181.547209
 20
230.989270
 30
0.0
  0
SPLINE
  5
193
100
AcDbEntity
  8
Image
 62
7
100
AcDbSpline
 70
8
 71
3
 72
8
 73
4
 74
0
 40
0
 40
0
 40
0
 40
0
 40
1
 40
1
 40
1
 40
1
 10
181.547209
 20
230.989270
 30
0.0
 10
181.212940
 20
231.119635
 30
0.0
 10
180.654420
 20
231.226299
 30
0.0
 10
180.306051
 20
231.226299
 30
0.0
  0
SPLINE
  5
194
100
AcDbEntity
  8
Image
 62
7
100
AcDbSpline
 70
8
 71
3
 72
8
 73
4
 74
0
 40
0
 40
0
 40
0
 40
0
 40
1
 40
1
 40
1
 40
1
 10
180.306051
 20
231.226299
 30
0.0
 10
179.957685
 20
231.226299
 30
0.0
 10
179.599074
 20
231.345362
 30
0.0
 10
179.509137
 20
231.490882
 30
0.0
  0
SPLINE
  5
195
100
AcDbEntity
  8
Image
 62
7
100
AcDbSpline
 70
8
 71
3
 72
8
 73
4
 74
0
 40
0
 40
0
 40
0
 40
0
 40
1
 40
1
 40
1
 40
1
 10
179.509137
 20
231.490882
 30
0.0
 10
179.419200
 20
231.636403
 30
0.0
 10
178.934308
 20
231.755466
 30
0.0
 10
178.431597
 20
231.755466
 30
0.0
  0
SPLINE
  5
196
100
AcDbEntity
  8
Image
 62
7
100
AcDbSpline
 70
8
 71
3
 72
8
 73
4
 74
0
 40
0
 40
0
 40
0
 40
0
 40
1
 40
1
 40
1
 40
1
 10
178.431597
 20
231.755466
 30
0.0
 10
177.928889
 20
231.755466
 30
0.0
 10
177.310838
 20
231.861831
 30
0.0
 10
177.058151
 20
231.991834
 30
0.0
  0
SPLINE
  5
197
100
AcDbEntity
  8
Image
 62
7
100
AcDbSpline
 70
8
 71
3
 72
8
 73
4
 74
0
 40
0
 40
0
 40
0
 40
0
 40
1
 40
1
 40
1
 40
1
 10
177.058151
 20
231.991834
 30
0.0
 10
176.805463
 20
232.121837
 30
0.0
 10
175.943876
 20
232.372871
 30
0.0
 10
175.143512
 20
232.549689
 30
0.0
  0
SPLINE
  5
198
100
AcDbEntity
  8
Image
 62
7
100
AcDbSpline
 70
8
 71
3
 72
8
 73
4
 74
0
 40
0
 40
0
 40
0
 40
0
 40
1
 40
1
 40
1
 40
1
 10
175.143512
 20
232.549689
 30
0.0
 10
172.899927
 20
233.045349
 30
0.0
 10
169.805874
 20
234.145688
 30
0.0
 10
168.925804
 20
234.760894
 30
0.0
  0
SPLINE
  5
199
100
AcDbEntity
  8
Image
 62
7
100
AcDbSpline
 70
8
 71
3
 72
8
 73
4
 74
0
 40
0
 40
0
 40
0
 40
0
 40
1
 40
1
 40
1
 40
1
 10
168.925804
 20
234.760894
 30
0.0
 10
167.680748
 20
235.631239
 30
0.0
 10
167.256910
 20
236.288345
 30
0.0
 10
167.067632
 20
237.641754
 30
0.0
  0
SPLINE
  5
19a
100
AcDbEntity
  8
Image
 62
7
100
AcDbSpline
 70
8
 71
3
 72
8
 73
4
 74
0
 40
0
 40
0
 40
0
 40
0
 40
1
 40
1
 40
1
 40
1
 10
167.067632
 20
237.641754
 30
0.0
 10
166.915108
 20
238.732340
 30
0.0
 10
166.989236
 20
239.051587
 30
0.0
 10
167.630258
 20
240.064824
 30
0.0
  0
SPLINE
  5
19b
100
AcDbEntity
  8
Image
 62
7
100
AcDbSpline
 70
8
 71
3
 72
8
 73
4
 74
0
 40
0
 40
0
 40
0
 40
0
 40
1
 40
1
 40
1
 40
1
 10
167.630258
 20
240.064824
 30
0.0
 10
170.029807
 20
243.857695
 30
0.0
 10
177.239747
 20
244.649022
 30
0.0
 10
179.837654
 20
241.404645
 30
0.0
  0
SPLINE
  5
19c
100
AcDbEntity
  8
Image
 62
7
100
AcDbSpline
 70
8
 71
3
 72
8
 73
4
 74
0
 40
0
 40
0
 40
0
 40
0
 40
1
 40
1
 40
1
 40
1
 10
179.837654
 20
241.404645
 30
0.0
 10
180.423775
 20
240.672670
 30
0.0
 10
180.593518
 20
240.140945
 30
0.0
 10
180.699762
 20
238.704030
 30
0.0
  0
LWPOLYLINE
  5
19d
100
AcDbEntity
  8
Image
 62
7
100
AcDbPolyline
 90
1
 70
1
 10
65.738304
 20
197.799455
 30
0.0
  0
SPLINE
  5
19e
100
AcDbEntity
  8
Image
 62
7
100
AcDbSpline
 70
8
 71
3
 72
8
 73
4
 74
0
 40
0
 40
0
 40
0
 40
0
 40
1
 40
1
 40
1
 40
1
 10
188.340534
 20
236.844517
 30
0.0
 10
193.330068
 20
236.797784
 30
0.0
 10
195.962109
 20
236.868039
 30
0.0
 10
196.186123
 20
237.053967
 30
0.0
  0
SPLINE
  5
19f
100
AcDbEntity
  8
Image
 62
7
100
AcDbSpline
 70
8
 71
3
 72
8
 73
4
 74
0
 40
0
 40
0
 40
0
 40
0
 40
1
 40
1
 40
1
 40
1
 10
196.186123
 20
237.053967
 30
0.0
 10
197.077994
 20
237.794154
 30
0.0
 10
197.159504
 20
245.650345
 30
0.0
 10
196.280945
 20
246.193326
 30
0.0
  0
SPLINE
  5
1a0
100
AcDbEntity
  8
Image
 62
7
100
AcDbSpline
 70
8
 71
3
 72
8
 73
4
 74
0
 40
0
 40
0
 40
0
 40
0
 40
1
 40
1
 40
1
 40
1
 10
196.280945
 20
246.193326
 30
0.0
 10
196.151503
 20
246.273325
 30
0.0
 10
196.045595
 20
246.519298
 30
0.0
 10
196.045595
 20
246.739934
 30
0.0
  0
SPLINE
  5
1a1
100
AcDbEntity
  8
Image
 62
7
100
AcDbSpline
 70
8
 71
3
 72
8
 73
4
 74
0
 40
0
 40
0
 40
0
 40
0
 40
1
 40
1
 40
1
 40
1
 10
196.045595
 20
246.739934
 30
0.0
 10
196.045595
 20
247.517436
 30
0.0
 10
193.775838
 20
250.035383
 30
0.0
 10
192.025696
 20
251.199393
 30
0.0
  0
SPLINE
  5
1a2
100
AcDbEntity
  8
Image
 62
7
100
AcDbSpline
 70
8
 71
3
 72
8
 73
4
 74
0
 40
0
 40
0
 40
0
 40
0
 40
1
 40
1
 40
1
 40
1
 10
192.025696
 20
251.199393
 30
0.0
 10
190.202701
 20
252.411860
 30
0.0
 10
188.455824
 20
253.105174
 30
0.0
 10
185.462262
 20
253.804338
 30
0.0
  0
SPLINE
  5
1a3
100
AcDbEntity
  8
Image
 62
7
100
AcDbSpline
 70
8
 71
3
 72
8
 73
4
 74
0
 40
0
 40
0
 40
0
 40
0
 40
1
 40
1
 40
1
 40
1
 10
185.462262
 20
253.804338
 30
0.0
 10
180.745527
 20
254.905960
 30
0.0
 10
172.924057
 20
254.820423
 30
0.0
 10
167.999762
 20
253.613367
 30
0.0
  0
SPLINE
  5
1a4
100
AcDbEntity
  8
Image
 62
7
100
AcDbSpline
 70
8
 71
3
 72
8
 73
4
 74
0
 40
0
 40
0
 40
0
 40
0
 40
1
 40
1
 40
1
 40
1
 10
167.999762
 20
253.613367
 30
0.0
 10
167.053876
 20
253.381510
 30
0.0
 10
165.861407
 20
253.090434
 30
0.0
 10
165.349833
 20
252.966535
 30
0.0
  0
SPLINE
  5
1a5
100
AcDbEntity
  8
Image
 62
7
100
AcDbSpline
 70
8
 71
3
 72
8
 73
4
 74
0
 40
0
 40
0
 40
0
 40
0
 40
1
 40
1
 40
1
 40
1
 10
165.349833
 20
252.966535
 30
0.0
 10
163.144086
 20
252.432325
 30
0.0
 10
157.151845
 20
249.260304
 30
0.0
 10
157.151845
 20
248.626892
 30
0.0
  0
SPLINE
  5
1a6
100
AcDbEntity
  8
Image
 62
7
100
AcDbSpline
 70
8
 71
3
 72
8
 73
4
 74
0
 40
0
 40
0
 40
0
 40
0
 40
1
 40
1
 40
1
 40
1
 10
157.151845
 20
248.626892
 30
0.0
 10
157.151845
 20
248.515420
 30
0.0
 10
157.028814
 20
248.424216
 30
0.0
 10
156.878443
 20
248.424216
 30
0.0
  0
SPLINE
  5
1a7
100
AcDbEntity
  8
Image
 62
7
100
AcDbSpline
 70
8
 71
3
 72
8
 73
4
 74
0
 40
0
 40
0
 40
0
 40
0
 40
1
 40
1
 40
1
 40
1
 10
156.878443
 20
248.424216
 30
0.0
 10
156.601779
 20
248.424216
 30
0.0
 10
154.770595
 20
246.708493
 30
0.0
 10
154.770595
 20
246.449273
 30
0.0
  0
SPLINE
  5
1a8
100
AcDbEntity
  8
Image
 62
7
100
AcDbSpline
 70
8
 71
3
 72
8
 73
4
 74
0
 40
0
 40
0
 40
0
 40
0
 40
1
 40
1
 40
1
 40
1
 10
154.770595
 20
246.449273
 30
0.0
 10
154.770595
 20
246.372002
 30
0.0
 10
154.354662
 20
245.867812
 30
0.0
 10
153.846302
 20
245.328853
 30
0.0
  0
SPLINE
  5
1a9
100
AcDbEntity
  8
Image
 62
7
100
AcDbSpline
 70
8
 71
3
 72
8
 73
4
 74
0
 40
0
 40
0
 40
0
 40
0
 40
1
 40
1
 40
1
 40
1
 10
153.846302
 20
245.328853
 30
0.0
 10
152.852956
 20
244.275718
 30
0.0
 10
151.158871
 20
240.992319
 30
0.0
 10
150.396467
 20
238.642533
 30
0.0
  0
SPLINE
  5
1aa
100
AcDbEntity
  8
Image
 62
7
100
AcDbSpline
 70
8
 71
3
 72
8
 73
4
 74
0
 40
0
 40
0
 40
0
 40
0
 40
1
 40
1
 40
1
 40
1
 10
150.396467
 20
238.642533
 30
0.0
 10
150.066333
 20
237.625038
 30
0.0
 10
149.923900
 20
236.328553
 30
0.0
 10
149.916859
 20
234.276908
 30
0.0
  0
SPLINE
  5
1ab
100
AcDbEntity
  8
Image
 62
7
100
AcDbSpline
 70
8
 71
3
 72
8
 73
4
 74
0
 40
0
 40
0
 40
0
 40
0
 40
1
 40
1
 40
1
 40
1
 10
149.916859
 20
234.276908
 30
0.0
 10
149.907149
 20
231.447292
 30
0.0
 10
149.936491
 20
231.296991
 30
0.0
 10
150.881995
 20
229.331888
 30
0.0
  0
SPLINE
  5
1ac
100
AcDbEntity
  8
Image
 62
7
100
AcDbSpline
 70
8
 71
3
 72
8
 73
4
 74
0
 40
0
 40
0
 40
0
 40
0
 40
1
 40
1
 40
1
 40
1
 10
150.881995
 20
229.331888
 30
0.0
 10
151.885531
 20
227.246206
 30
0.0
 10
153.484723
 20
225.520186
 30
0.0
 10
155.059430
 20
224.823152
 30
0.0
  0
SPLINE
  5
1ad
100
AcDbEntity
  8
Image
 62
7
100
AcDbSpline
 70
8
 71
3
 72
8
 73
4
 74
0
 40
0
 40
0
 40
0
 40
0
 40
1
 40
1
 40
1
 40
1
 10
155.059430
 20
224.823152
 30
0.0
 10
155.482655
 20
224.635817
 30
0.0
 10
155.828929
 20
224.392543
 30
0.0
 10
155.828929
 20
224.282545
 30
0.0
  0
SPLINE
  5
1ae
100
AcDbEntity
  8
Image
 62
7
100
AcDbSpline
 70
8
 71
3
 72
8
 73
4
 74
0
 40
0
 40
0
 40
0
 40
0
 40
1
 40
1
 40
1
 40
1
 10
155.828929
 20
224.282545
 30
0.0
 10
155.828929
 20
224.172547
 30
0.0
 10
156.043241
 20
224.082549
 30
0.0
 10
156.305179
 20
224.082549
 30
0.0
  0
SPLINE
  5
1af
100
AcDbEntity
  8
Image
 62
7
100
AcDbSpline
 70
8
 71
3
 72
8
 73
4
 74
0
 40
0
 40
0
 40
0
 40
0
 40
1
 40
1
 40
1
 40
1
 10
156.305179
 20
224.082549
 30
0.0
 10
156.567116
 20
224.082549
 30
0.0
 10
156.894538
 20
223.984997
 30
0.0
 10
157.032783
 20
223.865771
 30
0.0
  0
SPLINE
  5
1b0
100
AcDbEntity
  8
Image
 62
7
100
AcDbSpline
 70
8
 71
3
 72
8
 73
4
 74
0
 40
0
 40
0
 40
0
 40
0
 40
1
 40
1
 40
1
 40
1
 10
157.032783
 20
223.865771
 30
0.0
 10
157.341258
 20
223.599727
 30
0.0
 10
160.556570
 20
222.416698
 30
0.0
 10
162.178929
 20
221.972317
 30
0.0
  0
SPLINE
  5
1b1
100
AcDbEntity
  8
Image
 62
7
100
AcDbSpline
 70
8
 71
3
 72
8
 73
4
 74
0
 40
0
 40
0
 40
0
 40
0
 40
1
 40
1
 40
1
 40
1
 10
162.178929
 20
221.972317
 30
0.0
 10
162.833772
 20
221.792948
 30
0.0
 10
163.643045
 20
221.539528
 30
0.0
 10
163.977315
 20
221.409162
 30
0.0
  0
SPLINE
  5
1b2
100
AcDbEntity
  8
Image
 62
7
100
AcDbSpline
 70
8
 71
3
 72
8
 73
4
 74
0
 40
0
 40
0
 40
0
 40
0
 40
1
 40
1
 40
1
 40
1
 10
163.977315
 20
221.409162
 30
0.0
 10
164.311584
 20
221.278797
 30
0.0
 10
164.929635
 20
221.172132
 30
0.0
 10
165.350764
 20
221.172132
 30
0.0
  0
SPLINE
  5
1b3
100
AcDbEntity
  8
Image
 62
7
100
AcDbSpline
 70
8
 71
3
 72
8
 73
4
 74
0
 40
0
 40
0
 40
0
 40
0
 40
1
 40
1
 40
1
 40
1
 10
165.350764
 20
221.172132
 30
0.0
 10
165.771891
 20
221.172132
 30
0.0
 10
166.181902
 20
221.066225
 30
0.0
 10
166.261902
 20
220.936783
 30
0.0
  0
SPLINE
  5
1b4
100
AcDbEntity
  8
Image
 62
7
100
AcDbSpline
 70
8
 71
3
 72
8
 73
4
 74
0
 40
0
 40
0
 40
0
 40
0
 40
1
 40
1
 40
1
 40
1
 10
166.261902
 20
220.936783
 30
0.0
 10
166.341904
 20
220.807341
 30
0.0
 10
166.795413
 20
220.641325
 30
0.0
 10
167.269705
 20
220.567861
 30
0.0
  0
SPLINE
  5
1b5
100
AcDbEntity
  8
Image
 62
7
100
AcDbSpline
 70
8
 71
3
 72
8
 73
4
 74
0
 40
0
 40
0
 40
0
 40
0
 40
1
 40
1
 40
1
 40
1
 10
167.269705
 20
220.567861
 30
0.0
 10
170.970842
 20
219.994578
 30
0.0
 10
174.733910
 20
218.447310
 30
0.0
 10
175.916601
 20
217.012501
 30
0.0
  0
SPLINE
  5
1b6
100
AcDbEntity
  8
Image
 62
7
100
AcDbSpline
 70
8
 71
3
 72
8
 73
4
 74
0
 40
0
 40
0
 40
0
 40
0
 40
1
 40
1
 40
1
 40
1
 10
175.916601
 20
217.012501
 30
0.0
 10
177.722207
 20
214.821990
 30
0.0
 10
176.389027
 20
211.494306
 30
0.0
 10
173.026845
 20
209.799518
 30
0.0
  0
SPLINE
  5
1b7
100
AcDbEntity
  8
Image
 62
7
100
AcDbSpline
 70
8
 71
3
 72
8
 73
4
 74
0
 40
0
 40
0
 40
0
 40
0
 40
1
 40
1
 40
1
 40
1
 10
173.026845
 20
209.799518
 30
0.0
 10
172.372001
 20
209.469429
 30
0.0
 10
171.614312
 20
209.085791
 30
0.0
 10
171.343087
 20
208.946991
 30
0.0
  0
SPLINE
  5
1b8
100
AcDbEntity
  8
Image
 62
7
100
AcDbSpline
 70
8
 71
3
 72
8
 73
4
 74
0
 40
0
 40
0
 40
0
 40
0
 40
1
 40
1
 40
1
 40
1
 10
171.343087
 20
208.946991
 30
0.0
 10
171.071865
 20
208.808188
 30
0.0
 10
169.399794
 20
208.692327
 30
0.0
 10
167.627377
 20
208.689522
 30
0.0
  0
SPLINE
  5
1b9
100
AcDbEntity
  8
Image
 62
7
100
AcDbSpline
 70
8
 71
3
 72
8
 73
4
 74
0
 40
0
 40
0
 40
0
 40
0
 40
1
 40
1
 40
1
 40
1
 10
167.627377
 20
208.689522
 30
0.0
 10
164.201660
 20
208.684098
 30
0.0
 10
163.280807
 20
208.951335
 30
0.0
 10
161.702184
 20
210.409028
 30
0.0
  0
SPLINE
  5
1ba
100
AcDbEntity
  8
Image
 62
7
100
AcDbSpline
 70
8
 71
3
 72
8
 73
4
 74
0
 40
0
 40
0
 40
0
 40
0
 40
1
 40
1
 40
1
 40
1
 10
161.702184
 20
210.409028
 30
0.0
 10
160.443984
 20
211.570845
 30
0.0
 10
159.534373
 20
214.993815
 30
0.0
 10
160.349898
 20
215.497839
 30
0.0
  0
SPLINE
  5
1bb
100
AcDbEntity
  8
Image
 62
7
100
AcDbSpline
 70
8
 71
3
 72
8
 73
4
 74
0
 40
0
 40
0
 40
0
 40
0
 40
1
 40
1
 40
1
 40
1
 10
160.349898
 20
215.497839
 30
0.0
 10
161.194951
 20
216.020110
 30
0.0
 10
159.489479
 20
216.162512
 30
0.0
 10
152.397439
 20
216.161848
 30
0.0
  0
SPLINE
  5
1bc
100
AcDbEntity
  8
Image
 62
7
100
AcDbSpline
 70
8
 71
3
 72
8
 73
4
 74
0
 40
0
 40
0
 40
0
 40
0
 40
1
 40
1
 40
1
 40
1
 10
152.397439
 20
216.161848
 30
0.0
 10
148.133218
 20
216.161318
 30
0.0
 10
144.585478
 20
216.102295
 30
0.0
 10
144.513578
 20
216.030392
 30
0.0
  0
SPLINE
  5
1bd
100
AcDbEntity
  8
Image
 62
7
100
AcDbSpline
 70
8
 71
3
 72
8
 73
4
 74
0
 40
0
 40
0
 40
0
 40
0
 40
1
 40
1
 40
1
 40
1
 10
144.513578
 20
216.030392
 30
0.0
 10
144.225224
 20
215.742038
 30
0.0
 10
144.145870
 20
209.829490
 30
0.0
 10
144.411367
 20
208.414742
 30
0.0
  0
SPLINE
  5
1be
100
AcDbEntity
  8
Image
 62
7
100
AcDbSpline
 70
8
 71
3
 72
8
 73
4
 74
0
 40
0
 40
0
 40
0
 40
0
 40
1
 40
1
 40
1
 40
1
 10
144.411367
 20
208.414742
 30
0.0
 10
145.421363
 20
203.032775
 30
0.0
 10
149.544342
 20
199.513926
 30
0.0
 10
156.490387
 20
198.105625
 30
0.0
  0
SPLINE
  5
1bf
100
AcDbEntity
  8
Image
 62
7
100
AcDbSpline
 70
8
 71
3
 72
8
 73
4
 74
0
 40
0
 40
0
 40
0
 40
0
 40
1
 40
1
 40
1
 40
1
 10
156.490387
 20
198.105625
 30
0.0
 10
159.414448
 20
197.512776
 30
0.0
 10
170.348944
 20
197.306094
 30
0.0
 10
171.703929
 20
197.818060
 30
0.0
  0
LWPOLYLINE
  5
1c0
100
AcDbEntity
  8
Image
 62
7
100
AcDbPolyline
 90
3
 70
0
 10
180.699762
 20
238.704030
 30
0.0
 10
180.832054
 20
236.914841
 30
0.0
 10
188.340534
 20
236.844517
 30
0.0
  0
SPLINE
  5
1c1
100
AcDbEntity
  8
Image
 62
7
100
AcDbSpline
 70
8
 71
3
 72
8
 73
4
 74
0
 40
0
 40
0
 40
0
 40
0
 40
1
 40
1
 40
1
 40
1
 10
134.199241
 20
198.688605
 30
0.0
 10
134.467391
 20
198.685086
 30
0.0
 10
134.660836
 20
198.877415
 30
0.0
 10
134.658870
 20
199.145565
 30
0.0
  0
SPLINE
  5
1c2
100
AcDbEntity
  8
Image
 62
7
100
AcDbSpline
 70
8
 71
3
 72
8
 73
4
 74
0
 40
0
 40
0
 40
0
 40
0
 40
1
 40
1
 40
1
 40
1
 10
134.658870
 20
199.145565
 30
0.0
 10
134.653869
 20
199.829521
 30
0.0
 10
135.471596
 20
203.504221
 30
0.0
 10
135.747313
 20
204.036766
 30
0.0
  0
SPLINE
  5
1c3
100
AcDbEntity
  8
Image
 62
7
100
AcDbSpline
 70
8
 71
3
 72
8
 73
4
 74
0
 40
0
 40
0
 40
0
 40
0
 40
1
 40
1
 40
1
 40
1
 10
135.747313
 20
204.036766
 30
0.0
 10
135.878139
 20
204.289454
 30
0.0
 10
135.985179
 20
204.950250
 30
0.0
 10
135.985179
 20
205.505203
 30
0.0
  0
SPLINE
  5
1c4
100
AcDbEntity
  8
Image
 62
7
100
AcDbSpline
 70
8
 71
3
 72
8
 73
4
 74
0
 40
0
 40
0
 40
0
 40
0
 40
1
 40
1
 40
1
 40
1
 10
135.985179
 20
205.505203
 30
0.0
 10
135.985179
 20
206.060156
 30
0.0
 10
136.111443
 20
206.640475
 30
0.0
 10
136.265767
 20
206.794798
 30
0.0
  0
SPLINE
  5
1c5
100
AcDbEntity
  8
Image
 62
7
100
AcDbSpline
 70
8
 71
3
 72
8
 73
4
 74
0
 40
0
 40
0
 40
0
 40
0
 40
1
 40
1
 40
1
 40
1
 10
136.265767
 20
206.794798
 30
0.0
 10
136.420090
 20
206.949122
 30
0.0
 10
136.509387
 20
207.644807
 30
0.0
 10
136.464204
 20
208.340764
 30
0.0
  0
LWPOLYLINE
  5
1c6
100
AcDbEntity
  8
Image
 62
7
100
AcDbPolyline
 90
1
 70
1
 10
171.703929
 20
197.818060
 30
0.0
  0
SPLINE
  5
1c7
100
AcDbEntity
  8
Image
 62
7
100
AcDbSpline
 70
8
 71
3
 72
8
 73
4
 74
0
 40
0
 40
0
 40
0
 40
0
 40
1
 40
1
 40
1
 40
1
 10
110.469257
 20
210.778976
 30
0.0
 10
110.570214
 20
211.474741
 30
0.0
 10
110.756660
 20
212.244535
 30
0.0
 10
110.883581
 20
212.489629
 30
0.0
  0
SPLINE
  5
1c8
100
AcDbEntity
  8
Image
 62
7
100
AcDbSpline
 70
8
 71
3
 72
8
 73
4
 74
0
 40
0
 40
0
 40
0
 40
0
 40
1
 40
1
 40
1
 40
1
 10
110.883581
 20
212.489629
 30
0.0
 10
111.010502
 20
212.734723
 30
0.0
 10
111.114345
 20
213.412305
 30
0.0
 10
111.114345
 20
213.995368
 30
0.0
  0
SPLINE
  5
1c9
100
AcDbEntity
  8
Image
 62
7
100
AcDbSpline
 70
8
 71
3
 72
8
 73
4
 74
0
 40
0
 40
0
 40
0
 40
0
 40
1
 40
1
 40
1
 40
1
 10
111.114345
 20
213.995368
 30
0.0
 10
111.114345
 20
214.578430
 30
0.0
 10
111.220832
 20
215.121292
 30
0.0
 10
111.350981
 20
215.201730
 30
0.0
  0
SPLINE
  5
1ca
100
AcDbEntity
  8
Image
 62
7
100
AcDbSpline
 70
8
 71
3
 72
8
 73
4
 74
0
 40
0
 40
0
 40
0
 40
0
 40
1
 40
1
 40
1
 40
1
 10
111.350981
 20
215.201730
 30
0.0
 10
111.481129
 20
215.282166
 30
0.0
 10
111.655154
 20
215.795206
 30
0.0
 10
111.737704
 20
216.341822
 30
0.0
  0
SPLINE
  5
1cb
100
AcDbEntity
  8
Image
 62
7
100
AcDbSpline
 70
8
 71
3
 72
8
 73
4
 74
0
 40
0
 40
0
 40
0
 40
0
 40
1
 40
1
 40
1
 40
1
 10
111.737704
 20
216.341822
 30
0.0
 10
111.820251
 20
216.888438
 30
0.0
 10
111.957683
 20
217.811919
 30
0.0
 10
112.043107
 20
218.394002
 30
0.0
  0
SPLINE
  5
1cc
100
AcDbEntity
  8
Image
 62
7
100
AcDbSpline
 70
8
 71
3
 72
8
 73
4
 74
0
 40
0
 40
0
 40
0
 40
0
 40
1
 40
1
 40
1
 40
1
 10
112.043107
 20
218.394002
 30
0.0
 10
112.128533
 20
218.976086
 30
0.0
 10
112.254432
 20
219.720226
 30
0.0
 10
112.322885
 20
220.047648
 30
0.0
  0
LWPOLYLINE
  5
1cd
100
AcDbEntity
  8
Image
 62
7
100
AcDbPolyline
 90
5
 70
0
 10
136.464204
 20
208.340764
 30
0.0
 10
136.382054
 20
209.606142
 30
0.0
 10
123.333875
 20
209.560046
 30
0.0
 10
110.285697
 20
209.513951
 30
0.0
 10
110.469257
 20
210.778976
 30
0.0
  0
SPLINE
  5
1ce
100
AcDbEntity
  8
Image
 62
7
100
AcDbSpline
 70
8
 71
3
 72
8
 73
4
 74
0
 40
0
 40
0
 40
0
 40
0
 40
1
 40
1
 40
1
 40
1
 10
124.745427
 20
220.642961
 30
0.0
 10
136.411639
 20
220.642966
 30
0.0
 10
137.043512
 20
220.667434
 30
0.0
 10
137.043512
 20
221.119216
 30
0.0
  0
SPLINE
  5
1cf
100
AcDbEntity
  8
Image
 62
7
100
AcDbSpline
 70
8
 71
3
 72
8
 73
4
 74
0
 40
0
 40
0
 40
0
 40
0
 40
1
 40
1
 40
1
 40
1
 10
137.043512
 20
221.119216
 30
0.0
 10
137.043512
 20
221.381153
 30
0.0
 10
137.150380
 20
221.708575
 30
0.0
 10
137.280994
 20
221.846820
 30
0.0
  0
SPLINE
  5
1d0
100
AcDbEntity
  8
Image
 62
7
100
AcDbSpline
 70
8
 71
3
 72
8
 73
4
 74
0
 40
0
 40
0
 40
0
 40
0
 40
1
 40
1
 40
1
 40
1
 10
137.280994
 20
221.846820
 30
0.0
 10
137.411611
 20
221.985065
 30
0.0
 10
137.577528
 20
222.574424
 30
0.0
 10
137.649701
 20
223.156507
 30
0.0
  0
SPLINE
  5
1d1
100
AcDbEntity
  8
Image
 62
7
100
AcDbSpline
 70
8
 71
3
 72
8
 73
4
 74
0
 40
0
 40
0
 40
0
 40
0
 40
1
 40
1
 40
1
 40
1
 10
137.649701
 20
223.156507
 30
0.0
 10
137.791960
 20
224.303855
 30
0.0
 10
138.773712
 20
228.732048
 30
0.0
 10
139.181946
 20
230.067702
 30
0.0
  0
SPLINE
  5
1d2
100
AcDbEntity
  8
Image
 62
7
100
AcDbSpline
 70
8
 71
3
 72
8
 73
4
 74
0
 40
0
 40
0
 40
0
 40
0
 40
1
 40
1
 40
1
 40
1
 10
139.181946
 20
230.067702
 30
0.0
 10
139.725990
 20
231.847700
 30
0.0
 10
140.386615
 20
231.755466
 30
0.0
 10
127.093329
 20
231.755466
 30
0.0
  0
SPLINE
  5
1d3
100
AcDbEntity
  8
Image
 62
7
100
AcDbSpline
 70
8
 71
3
 72
8
 73
4
 74
0
 40
0
 40
0
 40
0
 40
0
 40
1
 40
1
 40
1
 40
1
 10
127.093329
 20
231.755466
 30
0.0
 10
115.288420
 20
231.755466
 30
0.0
 10
115.083095
 20
231.764435
 30
0.0
 10
115.083095
 20
232.280836
 30
0.0
  0
SPLINE
  5
1d4
100
AcDbEntity
  8
Image
 62
7
100
AcDbSpline
 70
8
 71
3
 72
8
 73
4
 74
0
 40
0
 40
0
 40
0
 40
0
 40
1
 40
1
 40
1
 40
1
 10
115.083095
 20
232.280836
 30
0.0
 10
115.083095
 20
232.760192
 30
0.0
 10
115.266920
 20
233.666964
 30
0.0
 10
115.888431
 20
236.253382
 30
0.0
  0
SPLINE
  5
1d5
100
AcDbEntity
  8
Image
 62
7
100
AcDbSpline
 70
8
 71
3
 72
8
 73
4
 74
0
 40
0
 40
0
 40
0
 40
0
 40
1
 40
1
 40
1
 40
1
 10
115.888431
 20
236.253382
 30
0.0
 10
116.160412
 20
237.385233
 30
0.0
 10
116.871152
 20
240.617063
 30
0.0
 10
117.066714
 20
241.611195
 30
0.0
  0
LWPOLYLINE
  5
1d6
100
AcDbEntity
  8
Image
 62
7
100
AcDbPolyline
 90
3
 70
0
 10
112.322885
 20
220.047648
 30
0.0
 10
112.447343
 20
220.642961
 30
0.0
 10
124.745427
 20
220.642961
 30
0.0
  0
SPLINE
  5
1d7
100
AcDbEntity
  8
Image
 62
7
100
AcDbSpline
 70
8
 71
3
 72
8
 73
4
 74
0
 40
0
 40
0
 40
0
 40
0
 40
1
 40
1
 40
1
 40
1
 10
143.948243
 20
243.066403
 30
0.0
 10
144.100621
 20
243.466586
 30
0.0
 10
144.331415
 20
244.329789
 30
0.0
 10
144.461119
 20
244.984632
 30
0.0
  0
SPLINE
  5
1d8
100
AcDbEntity
  8
Image
 62
7
100
AcDbSpline
 70
8
 71
3
 72
8
 73
4
 74
0
 40
0
 40
0
 40
0
 40
0
 40
1
 40
1
 40
1
 40
1
 10
144.461119
 20
244.984632
 30
0.0
 10
144.590820
 20
245.639476
 30
0.0
 10
144.890585
 20
247.008695
 30
0.0
 10
145.127258
 20
248.027341
 30
0.0
  0
SPLINE
  5
1d9
100
AcDbEntity
  8
Image
 62
7
100
AcDbSpline
 70
8
 71
3
 72
8
 73
4
 74
0
 40
0
 40
0
 40
0
 40
0
 40
1
 40
1
 40
1
 40
1
 10
145.127258
 20
248.027341
 30
0.0
 10
145.363933
 20
249.045987
 30
0.0
 10
145.640877
 20
250.415735
 30
0.0
 10
145.742692
 20
251.071224
 30
0.0
  0
SPLINE
  5
1da
100
AcDbEntity
  8
Image
 62
7
100
AcDbSpline
 70
8
 71
3
 72
8
 73
4
 74
0
 40
0
 40
0
 40
0
 40
0
 40
1
 40
1
 40
1
 40
1
 10
145.742692
 20
251.071224
 30
0.0
 10
145.844503
 20
251.726713
 30
0.0
 10
146.012821
 20
252.400578
 30
0.0
 10
146.116725
 20
252.568702
 30
0.0
  0
SPLINE
  5
1db
100
AcDbEntity
  8
Image
 62
7
100
AcDbSpline
 70
8
 71
3
 72
8
 73
4
 74
0
 40
0
 40
0
 40
0
 40
0
 40
1
 40
1
 40
1
 40
1
 10
146.116725
 20
252.568702
 30
0.0
 10
146.748294
 20
253.590597
 30
0.0
 10
146.846401
 20
253.586176
 30
0.0
 10
125.080998
 20
253.516987
 30
0.0
  0
SPLINE
  5
1dc
100
AcDbEntity
  8
Image
 62
7
100
AcDbSpline
 70
8
 71
3
 72
8
 73
4
 74
0
 40
0
 40
0
 40
0
 40
0
 40
1
 40
1
 40
1
 40
1
 10
125.080998
 20
253.516987
 30
0.0
 10
112.814023
 20
253.477993
 30
0.0
 10
104.027761
 20
253.349715
 30
0.0
 10
103.885585
 20
253.207539
 30
0.0
  0
SPLINE
  5
1dd
100
AcDbEntity
  8
Image
 62
7
100
AcDbSpline
 70
8
 71
3
 72
8
 73
4
 74
0
 40
0
 40
0
 40
0
 40
0
 40
1
 40
1
 40
1
 40
1
 10
103.885585
 20
253.207539
 30
0.0
 10
103.752020
 20
253.073974
 30
0.0
 10
103.550490
 20
252.508634
 30
0.0
 10
103.437735
 20
251.951225
 30
0.0
  0
SPLINE
  5
1de
100
AcDbEntity
  8
Image
 62
7
100
AcDbSpline
 70
8
 71
3
 72
8
 73
4
 74
0
 40
0
 40
0
 40
0
 40
0
 40
1
 40
1
 40
1
 40
1
 10
103.437735
 20
251.951225
 30
0.0
 10
103.324983
 20
251.393820
 30
0.0
 10
103.029808
 20
249.985257
 30
0.0
 10
102.781796
 20
248.821091
 30
0.0
  0
SPLINE
  5
1df
100
AcDbEntity
  8
Image
 62
7
100
AcDbSpline
 70
8
 71
3
 72
8
 73
4
 74
0
 40
0
 40
0
 40
0
 40
0
 40
1
 40
1
 40
1
 40
1
 10
102.781796
 20
248.821091
 30
0.0
 10
102.533781
 20
247.656924
 30
0.0
 10
102.223551
 20
246.198409
 30
0.0
 10
102.092395
 20
245.579945
 30
0.0
  0
SPLINE
  5
1e0
100
AcDbEntity
  8
Image
 62
7
100
AcDbSpline
 70
8
 71
3
 72
8
 73
4
 74
0
 40
0
 40
0
 40
0
 40
0
 40
1
 40
1
 40
1
 40
1
 10
102.092395
 20
245.579945
 30
0.0
 10
101.961238
 20
244.961481
 30
0.0
 10
101.728257
 20
243.889919
 30
0.0
 10
101.574658
 20
243.198695
 30
0.0
  0
SPLINE
  5
1e1
100
AcDbEntity
  8
Image
 62
7
100
AcDbSpline
 70
8
 71
3
 72
8
 73
4
 74
0
 40
0
 40
0
 40
0
 40
0
 40
1
 40
1
 40
1
 40
1
 10
101.574658
 20
243.198695
 30
0.0
 10
101.421062
 20
242.507471
 30
0.0
 10
101.235084
 20
241.525205
 30
0.0
 10
101.161379
 20
241.015882
 30
0.0
  0
SPLINE
  5
1e2
100
AcDbEntity
  8
Image
 62
7
100
AcDbSpline
 70
8
 71
3
 72
8
 73
4
 74
0
 40
0
 40
0
 40
0
 40
0
 40
1
 40
1
 40
1
 40
1
 10
101.161379
 20
241.015882
 30
0.0
 10
101.087671
 20
240.506560
 30
0.0
 10
100.924815
 20
239.851716
 30
0.0
 10
100.799477
 20
239.560674
 30
0.0
  0
SPLINE
  5
1e3
100
AcDbEntity
  8
Image
 62
7
100
AcDbSpline
 70
8
 71
3
 72
8
 73
4
 74
0
 40
0
 40
0
 40
0
 40
0
 40
1
 40
1
 40
1
 40
1
 10
100.799477
 20
239.560674
 30
0.0
 10
100.674138
 20
239.269632
 30
0.0
 10
100.506464
 20
238.555257
 30
0.0
 10
100.426864
 20
237.973174
 30
0.0
  0
SPLINE
  5
1e4
100
AcDbEntity
  8
Image
 62
7
100
AcDbSpline
 70
8
 71
3
 72
8
 73
4
 74
0
 40
0
 40
0
 40
0
 40
0
 40
1
 40
1
 40
1
 40
1
 10
100.426864
 20
237.973174
 30
0.0
 10
100.347267
 20
237.391091
 30
0.0
 10
100.092904
 20
236.140935
 30
0.0
 10
99.861613
 20
235.195049
 30
0.0
  0
SPLINE
  5
1e5
100
AcDbEntity
  8
Image
 62
7
100
AcDbSpline
 70
8
 71
3
 72
8
 73
4
 74
0
 40
0
 40
0
 40
0
 40
0
 40
1
 40
1
 40
1
 40
1
 10
99.861613
 20
235.195049
 30
0.0
 10
99.630323
 20
234.249164
 30
0.0
 10
99.318657
 20
232.879945
 30
0.0
 10
99.169022
 20
232.152341
 30
0.0
  0
SPLINE
  5
1e6
100
AcDbEntity
  8
Image
 62
7
100
AcDbSpline
 70
8
 71
3
 72
8
 73
4
 74
0
 40
0
 40
0
 40
0
 40
0
 40
1
 40
1
 40
1
 40
1
 10
99.169022
 20
232.152341
 30
0.0
 10
99.019389
 20
231.424737
 30
0.0
 10
98.782905
 20
230.293643
 30
0.0
 10
98.643506
 20
229.638799
 30
0.0
  0
SPLINE
  5
1e7
100
AcDbEntity
  8
Image
 62
7
100
AcDbSpline
 70
8
 71
3
 72
8
 73
4
 74
0
 40
0
 40
0
 40
0
 40
0
 40
1
 40
1
 40
1
 40
1
 10
98.643506
 20
229.638799
 30
0.0
 10
98.504105
 20
228.983955
 30
0.0
 10
98.283802
 20
227.912393
 30
0.0
 10
98.153942
 20
227.257549
 30
0.0
  0
SPLINE
  5
1e8
100
AcDbEntity
  8
Image
 62
7
100
AcDbSpline
 70
8
 71
3
 72
8
 73
4
 74
0
 40
0
 40
0
 40
0
 40
0
 40
1
 40
1
 40
1
 40
1
 10
98.153942
 20
227.257549
 30
0.0
 10
97.704315
 20
224.990200
 30
0.0
 10
97.594401
 20
224.475180
 30
0.0
 10
97.363418
 20
223.553382
 30
0.0
  0
SPLINE
  5
1e9
100
AcDbEntity
  8
Image
 62
7
100
AcDbSpline
 70
8
 71
3
 72
8
 73
4
 74
0
 40
0
 40
0
 40
0
 40
0
 40
1
 40
1
 40
1
 40
1
 10
97.363418
 20
223.553382
 30
0.0
 10
97.235791
 20
223.044060
 30
0.0
 10
96.924519
 20
221.615310
 30
0.0
 10
96.671704
 20
220.378382
 30
0.0
  0
SPLINE
  5
1ea
100
AcDbEntity
  8
Image
 62
7
100
AcDbSpline
 70
8
 71
3
 72
8
 73
4
 74
0
 40
0
 40
0
 40
0
 40
0
 40
1
 40
1
 40
1
 40
1
 10
96.671704
 20
220.378382
 30
0.0
 10
96.418887
 20
219.141455
 30
0.0
 10
96.112245
 20
218.016315
 30
0.0
 10
95.990275
 20
217.878070
 30
0.0
  0
SPLINE
  5
1eb
100
AcDbEntity
  8
Image
 62
7
100
AcDbSpline
 70
8
 71
3
 72
8
 73
4
 74
0
 40
0
 40
0
 40
0
 40
0
 40
1
 40
1
 40
1
 40
1
 10
95.990275
 20
217.878070
 30
0.0
 10
95.868305
 20
217.739825
 30
0.0
 10
95.768512
 20
217.062243
 30
0.0
 10
95.768512
 20
216.372332
 30
0.0
  0
SPLINE
  5
1ec
100
AcDbEntity
  8
Image
 62
7
100
AcDbSpline
 70
8
 71
3
 72
8
 73
4
 74
0
 40
0
 40
0
 40
0
 40
0
 40
1
 40
1
 40
1
 40
1
 10
95.768512
 20
216.372332
 30
0.0
 10
95.768512
 20
215.682420
 30
0.0
 10
95.665242
 20
215.054122
 30
0.0
 10
95.539023
 20
214.976115
 30
0.0
  0
SPLINE
  5
1ed
100
AcDbEntity
  8
Image
 62
7
100
AcDbSpline
 70
8
 71
3
 72
8
 73
4
 74
0
 40
0
 40
0
 40
0
 40
0
 40
1
 40
1
 40
1
 40
1
 10
95.539023
 20
214.976115
 30
0.0
 10
95.412803
 20
214.898105
 30
0.0
 10
95.236104
 20
214.325533
 30
0.0
 10
95.146355
 20
213.703728
 30
0.0
  0
SPLINE
  5
1ee
100
AcDbEntity
  8
Image
 62
7
100
AcDbSpline
 70
8
 71
3
 72
8
 73
4
 74
0
 40
0
 40
0
 40
0
 40
0
 40
1
 40
1
 40
1
 40
1
 10
95.146355
 20
213.703728
 30
0.0
 10
95.056605
 20
213.081923
 30
0.0
 10
94.856752
 20
211.977862
 30
0.0
 10
94.702238
 20
211.250257
 30
0.0
  0
SPLINE
  5
1ef
100
AcDbEntity
  8
Image
 62
7
100
AcDbSpline
 70
8
 71
3
 72
8
 73
4
 74
0
 40
0
 40
0
 40
0
 40
0
 40
1
 40
1
 40
1
 40
1
 10
94.702238
 20
211.250257
 30
0.0
 10
94.547722
 20
210.522653
 30
0.0
 10
94.317942
 20
209.391560
 30
0.0
 10
94.191616
 20
208.736716
 30
0.0
  0
SPLINE
  5
1f0
100
AcDbEntity
  8
Image
 62
7
100
AcDbSpline
 70
8
 71
3
 72
8
 73
4
 74
0
 40
0
 40
0
 40
0
 40
0
 40
1
 40
1
 40
1
 40
1
 10
94.191616
 20
208.736716
 30
0.0
 10
94.065291
 20
208.081872
 30
0.0
 10
93.767294
 20
206.772185
 30
0.0
 10
93.529399
 20
205.826299
 30
0.0
  0
SPLINE
  5
1f1
100
AcDbEntity
  8
Image
 62
7
100
AcDbSpline
 70
8
 71
3
 72
8
 73
4
 74
0
 40
0
 40
0
 40
0
 40
0
 40
1
 40
1
 40
1
 40
1
 10
93.529399
 20
205.826299
 30
0.0
 10
92.587109
 20
202.079685
 30
0.0
 10
92.037434
 20
198.862728
 30
0.0
 10
92.310667
 20
198.693685
 30
0.0
  0
SPLINE
  5
1f2
100
AcDbEntity
  8
Image
 62
7
100
AcDbSpline
 70
8
 71
3
 72
8
 73
4
 74
0
 40
0
 40
0
 40
0
 40
0
 40
1
 40
1
 40
1
 40
1
 10
92.310667
 20
198.693685
 30
0.0
 10
92.438172
 20
198.614800
 30
0.0
 10
101.811082
 20
198.582751
 30
0.0
 10
113.139358
 20
198.622465
 30
0.0
  0
SPLINE
  5
1f3
100
AcDbEntity
  8
Image
 62
7
100
AcDbSpline
 70
8
 71
3
 72
8
 73
4
 74
0
 40
0
 40
0
 40
0
 40
0
 40
1
 40
1
 40
1
 40
1
 10
113.139358
 20
198.622465
 30
0.0
 10
124.467631
 20
198.662179
 30
0.0
 10
133.944580
 20
198.691945
 30
0.0
 10
134.199241
 20
198.688611
 30
0.0
  0
LWPOLYLINE
  5
1f4
100
AcDbEntity
  8
Image
 62
7
100
AcDbPolyline
 90
5
 70
0
 10
117.066714
 20
241.611195
 30
0.0
 10
117.209843
 20
242.338799
 30
0.0
 10
130.440517
 20
242.338799
 30
0.0
 10
143.671192
 20
242.338799
 30
0.0
 10
143.948243
 20
243.066403
 30
0.0
  0
SPLINE
  5
1f5
100
AcDbEntity
  8
Image
 62
7
100
AcDbSpline
 70
8
 71
3
 72
8
 73
4
 74
0
 40
0
 40
0
 40
0
 40
0
 40
1
 40
1
 40
1
 40
1
 10
213.380040
 20
198.779850
 30
0.0
 10
213.595992
 20
198.862717
 30
0.0
 10
213.772679
 20
199.202424
 30
0.0
 10
213.772679
 20
199.534751
 30
0.0
  0
SPLINE
  5
1f6
100
AcDbEntity
  8
Image
 62
7
100
AcDbSpline
 70
8
 71
3
 72
8
 73
4
 74
0
 40
0
 40
0
 40
0
 40
0
 40
1
 40
1
 40
1
 40
1
 10
213.772679
 20
199.534751
 30
0.0
 10
213.772679
 20
199.867081
 30
0.0
 10
214.068927
 20
201.329332
 30
0.0
 10
214.431007
 20
202.784202
 30
0.0
  0
SPLINE
  5
1f7
100
AcDbEntity
  8
Image
 62
7
100
AcDbSpline
 70
8
 71
3
 72
8
 73
4
 74
0
 40
0
 40
0
 40
0
 40
0
 40
1
 40
1
 40
1
 40
1
 10
214.431007
 20
202.784202
 30
0.0
 10
214.793089
 20
204.239072
 30
0.0
 10
215.090745
 20
205.749813
 30
0.0
 10
215.092465
 20
206.141407
 30
0.0
  0
SPLINE
  5
1f8
100
AcDbEntity
  8
Image
 62
7
100
AcDbSpline
 70
8
 71
3
 72
8
 73
4
 74
0
 40
0
 40
0
 40
0
 40
0
 40
1
 40
1
 40
1
 40
1
 10
215.092465
 20
206.141407
 30
0.0
 10
215.094317
 20
206.533001
 30
0.0
 10
215.214658
 20
206.926982
 30
0.0
 10
215.360179
 20
207.016919
 30
0.0
  0
SPLINE
  5
1f9
100
AcDbEntity
  8
Image
 62
7
100
AcDbSpline
 70
8
 71
3
 72
8
 73
4
 74
0
 40
0
 40
0
 40
0
 40
0
 40
1
 40
1
 40
1
 40
1
 10
215.360179
 20
207.016919
 30
0.0
 10
215.505699
 20
207.106856
 30
0.0
 10
215.624762
 20
207.702169
 30
0.0
 10
215.624762
 20
208.339836
 30
0.0
  0
SPLINE
  5
1fa
100
AcDbEntity
  8
Image
 62
7
100
AcDbSpline
 70
8
 71
3
 72
8
 73
4
 74
0
 40
0
 40
0
 40
0
 40
0
 40
1
 40
1
 40
1
 40
1
 10
215.624762
 20
208.339836
 30
0.0
 10
215.624762
 20
208.977503
 30
0.0
 10
215.731249
 20
209.565042
 30
0.0
 10
215.861397
 20
209.645480
 30
0.0
  0
SPLINE
  5
1fb
100
AcDbEntity
  8
Image
 62
7
100
AcDbSpline
 70
8
 71
3
 72
8
 73
4
 74
0
 40
0
 40
0
 40
0
 40
0
 40
1
 40
1
 40
1
 40
1
 10
215.861397
 20
209.645480
 30
0.0
 10
215.991546
 20
209.725916
 30
0.0
 10
216.164089
 20
210.238956
 30
0.0
 10
216.244826
 20
210.785572
 30
0.0
  0
SPLINE
  5
1fc
100
AcDbEntity
  8
Image
 62
7
100
AcDbSpline
 70
8
 71
3
 72
8
 73
4
 74
0
 40
0
 40
0
 40
0
 40
0
 40
1
 40
1
 40
1
 40
1
 10
216.244826
 20
210.785572
 30
0.0
 10
216.325561
 20
211.332188
 30
0.0
 10
216.510608
 20
212.374731
 30
0.0
 10
216.656039
 20
213.102336
 30
0.0
  0
SPLINE
  5
1fd
100
AcDbEntity
  8
Image
 62
7
100
AcDbSpline
 70
8
 71
3
 72
8
 73
4
 74
0
 40
0
 40
0
 40
0
 40
0
 40
1
 40
1
 40
1
 40
1
 10
216.656039
 20
213.102336
 30
0.0
 10
216.801472
 20
213.829940
 30
0.0
 10
217.038423
 20
215.050008
 30
0.0
 10
217.182597
 20
215.813598
 30
0.0
  0
SPLINE
  5
1fe
100
AcDbEntity
  8
Image
 62
7
100
AcDbSpline
 70
8
 71
3
 72
8
 73
4
 74
0
 40
0
 40
0
 40
0
 40
0
 40
1
 40
1
 40
1
 40
1
 10
217.182597
 20
215.813598
 30
0.0
 10
217.326771
 20
216.577190
 30
0.0
 10
217.536583
 20
217.350568
 30
0.0
 10
217.648848
 20
217.532217
 30
0.0
  0
SPLINE
  5
1ff
100
AcDbEntity
  8
Image
 62
7
100
AcDbSpline
 70
8
 71
3
 72
8
 73
4
 74
0
 40
0
 40
0
 40
0
 40
0
 40
1
 40
1
 40
1
 40
1
 10
217.648848
 20
217.532217
 30
0.0
 10
217.761114
 20
217.713864
 30
0.0
 10
217.941467
 20
218.398796
 30
0.0
 10
218.049634
 20
219.054286
 30
0.0
  0
SPLINE
  5
200
100
AcDbEntity
  8
Image
 62
7
100
AcDbSpline
 70
8
 71
3
 72
8
 73
4
 74
0
 40
0
 40
0
 40
0
 40
0
 40
1
 40
1
 40
1
 40
1
 10
218.049634
 20
219.054286
 30
0.0
 10
218.157801
 20
219.709775
 30
0.0
 10
218.379474
 20
220.841398
 30
0.0
 10
218.542246
 20
221.569002
 30
0.0
  0
SPLINE
  5
201
100
AcDbEntity
  8
Image
 62
7
100
AcDbSpline
 70
8
 71
3
 72
8
 73
4
 74
0
 40
0
 40
0
 40
0
 40
0
 40
1
 40
1
 40
1
 40
1
 10
218.542246
 20
221.569002
 30
0.0
 10
218.705015
 20
222.296606
 30
0.0
 10
218.900618
 20
223.427700
 30
0.0
 10
218.976919
 20
224.082544
 30
0.0
  0
SPLINE
  5
202
100
AcDbEntity
  8
Image
 62
7
100
AcDbSpline
 70
8
 71
3
 72
8
 73
4
 74
0
 40
0
 40
0
 40
0
 40
0
 40
1
 40
1
 40
1
 40
1
 10
218.976919
 20
224.082544
 30
0.0
 10
219.053219
 20
224.737388
 30
0.0
 10
219.223169
 20
225.386278
 30
0.0
 10
219.354580
 20
225.524523
 30
0.0
  0
SPLINE
  5
203
100
AcDbEntity
  8
Image
 62
7
100
AcDbSpline
 70
8
 71
3
 72
8
 73
4
 74
0
 40
0
 40
0
 40
0
 40
0
 40
1
 40
1
 40
1
 40
1
 10
219.354580
 20
225.524523
 30
0.0
 10
219.485993
 20
225.662768
 30
0.0
 10
219.593512
 20
226.130564
 30
0.0
 10
219.593512
 20
226.564071
 30
0.0
  0
SPLINE
  5
204
100
AcDbEntity
  8
Image
 62
7
100
AcDbSpline
 70
8
 71
3
 72
8
 73
4
 74
0
 40
0
 40
0
 40
0
 40
0
 40
1
 40
1
 40
1
 40
1
 10
219.593512
 20
226.564071
 30
0.0
 10
219.593512
 20
226.997577
 30
0.0
 10
219.703441
 20
227.717906
 30
0.0
 10
219.837802
 20
228.164800
 30
0.0
  0
SPLINE
  5
205
100
AcDbEntity
  8
Image
 62
7
100
AcDbSpline
 70
8
 71
3
 72
8
 73
4
 74
0
 40
0
 40
0
 40
0
 40
0
 40
1
 40
1
 40
1
 40
1
 10
219.837802
 20
228.164800
 30
0.0
 10
219.972160
 20
228.611695
 30
0.0
 10
220.201450
 20
229.572648
 30
0.0
 10
220.347339
 20
230.300252
 30
0.0
  0
SPLINE
  5
206
100
AcDbEntity
  8
Image
 62
7
100
AcDbSpline
 70
8
 71
3
 72
8
 73
4
 74
0
 40
0
 40
0
 40
0
 40
0
 40
1
 40
1
 40
1
 40
1
 10
220.347339
 20
230.300252
 30
0.0
 10
221.093096
 20
234.019677
 30
0.0
 10
221.519343
 20
235.907662
 30
0.0
 10
221.721233
 20
236.385669
 30
0.0
  0
SPLINE
  5
207
100
AcDbEntity
  8
Image
 62
7
100
AcDbSpline
 70
8
 71
3
 72
8
 73
4
 74
0
 40
0
 40
0
 40
0
 40
0
 40
1
 40
1
 40
1
 40
1
 10
221.721233
 20
236.385669
 30
0.0
 10
221.844156
 20
236.676711
 30
0.0
 10
222.013857
 20
237.450617
 30
0.0
 10
222.098343
 20
238.105461
 30
0.0
  0
SPLINE
  5
208
100
AcDbEntity
  8
Image
 62
7
100
AcDbSpline
 70
8
 71
3
 72
8
 73
4
 74
0
 40
0
 40
0
 40
0
 40
0
 40
1
 40
1
 40
1
 40
1
 10
222.098343
 20
238.105461
 30
0.0
 10
222.444368
 20
240.787364
 30
0.0
 10
222.569201
 20
241.424471
 30
0.0
 10
222.795613
 20
241.664106
 30
0.0
  0
SPLINE
  5
209
100
AcDbEntity
  8
Image
 62
7
100
AcDbSpline
 70
8
 71
3
 72
8
 73
4
 74
0
 40
0
 40
0
 40
0
 40
0
 40
1
 40
1
 40
1
 40
1
 10
222.795613
 20
241.664106
 30
0.0
 10
222.926227
 20
241.802351
 30
0.0
 10
223.033095
 20
242.270148
 30
0.0
 10
223.033095
 20
242.703654
 30
0.0
  0
SPLINE
  5
20a
100
AcDbEntity
  8
Image
 62
7
100
AcDbSpline
 70
8
 71
3
 72
8
 73
4
 74
0
 40
0
 40
0
 40
0
 40
0
 40
1
 40
1
 40
1
 40
1
 10
223.033095
 20
242.703654
 30
0.0
 10
223.033095
 20
243.137161
 30
0.0
 10
223.142768
 20
243.857489
 30
0.0
 10
223.276808
 20
244.304383
 30
0.0
  0
SPLINE
  5
20b
100
AcDbEntity
  8
Image
 62
7
100
AcDbSpline
 70
8
 71
3
 72
8
 73
4
 74
0
 40
0
 40
0
 40
0
 40
0
 40
1
 40
1
 40
1
 40
1
 10
223.276808
 20
244.304383
 30
0.0
 10
223.508414
 20
245.076541
 30
0.0
 10
223.959722
 20
247.059828
 30
0.0
 10
224.635756
 20
250.276294
 30
0.0
  0
SPLINE
  5
20c
100
AcDbEntity
  8
Image
 62
7
100
AcDbSpline
 70
8
 71
3
 72
8
 73
4
 74
0
 40
0
 40
0
 40
0
 40
0
 40
1
 40
1
 40
1
 40
1
 10
224.635756
 20
250.276294
 30
0.0
 10
224.803975
 20
251.076658
 30
0.0
 10
225.058404
 20
251.954945
 30
0.0
 10
225.201155
 20
252.228043
 30
0.0
  0
SPLINE
  5
20d
100
AcDbEntity
  8
Image
 62
7
100
AcDbSpline
 70
8
 71
3
 72
8
 73
4
 74
0
 40
0
 40
0
 40
0
 40
0
 40
1
 40
1
 40
1
 40
1
 10
225.201155
 20
252.228043
 30
0.0
 10
225.782719
 20
253.340656
 30
0.0
 10
225.221660
 20
253.427709
 30
0.0
 10
217.234193
 20
253.464158
 30
0.0
  0
LWPOLYLINE
  5
20e
100
AcDbEntity
  8
Image
 62
7
100
AcDbPolyline
 90
1
 70
1
 10
134.199241
 20
198.688611
 30
0.0
  0
SPLINE
  5
20f
100
AcDbEntity
  8
Image
 62
7
100
AcDbSpline
 70
8
 71
3
 72
8
 73
4
 74
0
 40
0
 40
0
 40
0
 40
0
 40
1
 40
1
 40
1
 40
1
 10
209.372216
 20
252.879569
 30
0.0
 10
209.183409
 20
252.539175
 30
0.0
 10
209.024709
 20
251.837997
 30
0.0
 10
209.019555
 20
251.321398
 30
0.0
  0
SPLINE
  5
210
100
AcDbEntity
  8
Image
 62
7
100
AcDbSpline
 70
8
 71
3
 72
8
 73
4
 74
0
 40
0
 40
0
 40
0
 40
0
 40
1
 40
1
 40
1
 40
1
 10
209.019555
 20
251.321398
 30
0.0
 10
209.014396
 20
250.804799
 30
0.0
 10
208.902660
 20
250.269018
 30
0.0
 10
208.771247
 20
250.130773
 30
0.0
  0
SPLINE
  5
211
100
AcDbEntity
  8
Image
 62
7
100
AcDbSpline
 70
8
 71
3
 72
8
 73
4
 74
0
 40
0
 40
0
 40
0
 40
0
 40
1
 40
1
 40
1
 40
1
 10
208.771247
 20
250.130773
 30
0.0
 10
208.639836
 20
249.992528
 30
0.0
 10
208.472966
 20
249.343638
 30
0.0
 10
208.400428
 20
248.688794
 30
0.0
  0
SPLINE
  5
212
100
AcDbEntity
  8
Image
 62
7
100
AcDbSpline
 70
8
 71
3
 72
8
 73
4
 74
0
 40
0
 40
0
 40
0
 40
0
 40
1
 40
1
 40
1
 40
1
 10
208.400428
 20
248.688794
 30
0.0
 10
208.327890
 20
248.033950
 30
0.0
 10
208.070640
 20
246.724263
 30
0.0
 10
207.828764
 20
245.778377
 30
0.0
  0
SPLINE
  5
213
100
AcDbEntity
  8
Image
 62
7
100
AcDbSpline
 70
8
 71
3
 72
8
 73
4
 74
0
 40
0
 40
0
 40
0
 40
0
 40
1
 40
1
 40
1
 40
1
 10
207.828764
 20
245.778377
 30
0.0
 10
207.147427
 20
243.113954
 30
0.0
 10
206.867101
 20
241.780460
 30
0.0
 10
206.716355
 20
240.486711
 30
0.0
  0
SPLINE
  5
214
100
AcDbEntity
  8
Image
 62
7
100
AcDbSpline
 70
8
 71
3
 72
8
 73
4
 74
0
 40
0
 40
0
 40
0
 40
0
 40
1
 40
1
 40
1
 40
1
 10
206.716355
 20
240.486711
 30
0.0
 10
206.640054
 20
239.831867
 30
0.0
 10
206.470104
 20
239.182976
 30
0.0
 10
206.338694
 20
239.044731
 30
0.0
  0
SPLINE
  5
215
100
AcDbEntity
  8
Image
 62
7
100
AcDbSpline
 70
8
 71
3
 72
8
 73
4
 74
0
 40
0
 40
0
 40
0
 40
0
 40
1
 40
1
 40
1
 40
1
 10
206.338694
 20
239.044731
 30
0.0
 10
206.207281
 20
238.906487
 30
0.0
 10
206.099762
 20
238.305221
 30
0.0
 10
206.099762
 20
237.708586
 30
0.0
  0
SPLINE
  5
216
100
AcDbEntity
  8
Image
 62
7
100
AcDbSpline
 70
8
 71
3
 72
8
 73
4
 74
0
 40
0
 40
0
 40
0
 40
0
 40
1
 40
1
 40
1
 40
1
 10
206.099762
 20
237.708586
 30
0.0
 10
206.099762
 20
237.111950
 30
0.0
 10
205.992894
 20
236.510684
 30
0.0
 10
205.862280
 20
236.372440
 30
0.0
  0
SPLINE
  5
217
100
AcDbEntity
  8
Image
 62
7
100
AcDbSpline
 70
8
 71
3
 72
8
 73
4
 74
0
 40
0
 40
0
 40
0
 40
0
 40
1
 40
1
 40
1
 40
1
 10
205.862280
 20
236.372440
 30
0.0
 10
205.731663
 20
236.234195
 30
0.0
 10
205.560769
 20
235.644836
 30
0.0
 10
205.482515
 20
235.062752
 30
0.0
  0
SPLINE
  5
218
100
AcDbEntity
  8
Image
 62
7
100
AcDbSpline
 70
8
 71
3
 72
8
 73
4
 74
0
 40
0
 40
0
 40
0
 40
0
 40
1
 40
1
 40
1
 40
1
 10
205.482515
 20
235.062752
 30
0.0
 10
205.253106
 20
233.356327
 30
0.0
 10
204.531656
 20
230.087583
 30
0.0
 10
203.960061
 20
228.164800
 30
0.0
  0
SPLINE
  5
219
100
AcDbEntity
  8
Image
 62
7
100
AcDbSpline
 70
8
 71
3
 72
8
 73
4
 74
0
 40
0
 40
0
 40
0
 40
0
 40
1
 40
1
 40
1
 40
1
 10
203.960061
 20
228.164800
 30
0.0
 10
203.827208
 20
227.717906
 30
0.0
 10
203.718512
 20
226.980792
 30
0.0
 10
203.718512
 20
226.526770
 30
0.0
  0
SPLINE
  5
21a
100
AcDbEntity
  8
Image
 62
7
100
AcDbSpline
 70
8
 71
3
 72
8
 73
4
 74
0
 40
0
 40
0
 40
0
 40
0
 40
1
 40
1
 40
1
 40
1
 10
203.718512
 20
226.526770
 30
0.0
 10
203.718512
 20
226.072748
 30
0.0
 10
203.599449
 20
225.627689
 30
0.0
 10
203.453929
 20
225.537752
 30
0.0
  0
SPLINE
  5
21b
100
AcDbEntity
  8
Image
 62
7
100
AcDbSpline
 70
8
 71
3
 72
8
 73
4
 74
0
 40
0
 40
0
 40
0
 40
0
 40
1
 40
1
 40
1
 40
1
 10
203.453929
 20
225.537752
 30
0.0
 10
203.308408
 20
225.447815
 30
0.0
 10
203.189345
 20
224.869288
 30
0.0
 10
203.189345
 20
224.252136
 30
0.0
  0
SPLINE
  5
21c
100
AcDbEntity
  8
Image
 62
7
100
AcDbSpline
 70
8
 71
3
 72
8
 73
4
 74
0
 40
0
 40
0
 40
0
 40
0
 40
1
 40
1
 40
1
 40
1
 10
203.189345
 20
224.252136
 30
0.0
 10
203.189345
 20
223.634985
 30
0.0
 10
203.082477
 20
223.016934
 30
0.0
 10
202.951863
 20
222.878690
 30
0.0
  0
SPLINE
  5
21d
100
AcDbEntity
  8
Image
 62
7
100
AcDbSpline
 70
8
 71
3
 72
8
 73
4
 74
0
 40
0
 40
0
 40
0
 40
0
 40
1
 40
1
 40
1
 40
1
 10
202.951863
 20
222.878690
 30
0.0
 10
202.821246
 20
222.740445
 30
0.0
 10
202.647222
 20
222.151086
 30
0.0
 10
202.565140
 20
221.569002
 30
0.0
  0
SPLINE
  5
21e
100
AcDbEntity
  8
Image
 62
7
100
AcDbSpline
 70
8
 71
3
 72
8
 73
4
 74
0
 40
0
 40
0
 40
0
 40
0
 40
1
 40
1
 40
1
 40
1
 10
202.565140
 20
221.569002
 30
0.0
 10
202.204799
 20
219.013656
 30
0.0
 10
202.085604
 20
218.362419
 30
0.0
 10
201.887161
 20
217.864836
 30
0.0
  0
SPLINE
  5
21f
100
AcDbEntity
  8
Image
 62
7
100
AcDbSpline
 70
8
 71
3
 72
8
 73
4
 74
0
 40
0
 40
0
 40
0
 40
0
 40
1
 40
1
 40
1
 40
1
 10
201.887161
 20
217.864836
 30
0.0
 10
201.530582
 20
216.970729
 30
0.0
 10
200.803523
 20
213.670571
 30
0.0
 10
200.805873
 20
212.956815
 30
0.0
  0
SPLINE
  5
220
100
AcDbEntity
  8
Image
 62
7
100
AcDbSpline
 70
8
 71
3
 72
8
 73
4
 74
0
 40
0
 40
0
 40
0
 40
0
 40
1
 40
1
 40
1
 40
1
 10
200.805873
 20
212.956815
 30
0.0
 10
200.807196
 20
212.585737
 30
0.0
 10
200.701227
 20
212.169018
 30
0.0
 10
200.570613
 20
212.030773
 30
0.0
  0
SPLINE
  5
221
100
AcDbEntity
  8
Image
 62
7
100
AcDbSpline
 70
8
 71
3
 72
8
 73
4
 74
0
 40
0
 40
0
 40
0
 40
0
 40
1
 40
1
 40
1
 40
1
 10
200.570613
 20
212.030773
 30
0.0
 10
200.439996
 20
211.892528
 30
0.0
 10
200.267454
 20
211.303169
 30
0.0
 10
200.187184
 20
210.721086
 30
0.0
  0
SPLINE
  5
222
100
AcDbEntity
  8
Image
 62
7
100
AcDbSpline
 70
8
 71
3
 72
8
 73
4
 74
0
 40
0
 40
0
 40
0
 40
0
 40
1
 40
1
 40
1
 40
1
 10
200.187184
 20
210.721086
 30
0.0
 10
200.106912
 20
210.139002
 30
0.0
 10
199.916124
 20
209.037674
 30
0.0
 10
199.763208
 20
208.273690
 30
0.0
  0
SPLINE
  5
223
100
AcDbEntity
  8
Image
 62
7
100
AcDbSpline
 70
8
 71
3
 72
8
 73
4
 74
0
 40
0
 40
0
 40
0
 40
0
 40
1
 40
1
 40
1
 40
1
 10
199.763208
 20
208.273690
 30
0.0
 10
198.838476
 20
203.653644
 30
0.0
 10
198.628087
 20
202.645820
 30
0.0
 10
198.130737
 20
200.453633
 30
0.0
  0
SPLINE
  5
224
100
AcDbEntity
  8
Image
 62
7
100
AcDbSpline
 70
8
 71
3
 72
8
 73
4
 74
0
 40
0
 40
0
 40
0
 40
0
 40
1
 40
1
 40
1
 40
1
 10
198.130737
 20
200.453633
 30
0.0
 10
197.875036
 20
199.326569
 30
0.0
 10
197.861425
 20
198.868533
 30
0.0
 10
198.079640
 20
198.733841
 30
0.0
  0
SPLINE
  5
225
100
AcDbEntity
  8
Image
 62
7
100
AcDbSpline
 70
8
 71
3
 72
8
 73
4
 74
0
 40
0
 40
0
 40
0
 40
0
 40
1
 40
1
 40
1
 40
1
 10
198.079640
 20
198.733841
 30
0.0
 10
198.431169
 20
198.516862
 30
0.0
 10
212.807359
 20
198.560092
 30
0.0
 10
213.380040
 20
198.779850
 30
0.0
  0
LWPOLYLINE
  5
226
100
AcDbEntity
  8
Image
 62
7
100
AcDbPolyline
 90
3
 70
0
 10
217.234193
 20
253.464158
 30
0.0
 10
209.715502
 20
253.498466
 30
0.0
 10
209.372216
 20
252.879569
 30
0.0
  0
LWPOLYLINE
  5
227
100
AcDbEntity
  8
Image
 62
7
100
AcDbPolyline
 90
1
 70
1
 10
213.380040
 20
198.779850
 30
0.0
  0
ENDSEC
  0
SECTION
  2
OBJECTS
  0
DICTIONARY
  5
C
330
0
100
AcDbDictionary
  3
ACAD_GROUP
350
D
  3
ACAD_MLINESTYLE
350
17
  0
DICTIONARY
  5
D
330
C
100
AcDbDictionary
  0
DICTIONARY
  5
1A
330
C
100
AcDbDictionary
  0
DICTIONARY
  5
17
330
C
100
AcDbDictionary
  3
STANDARD
350
18
  0
DICTIONARY
  5
19
330
C
100
AcDbDictionary
  0
ENDSEC
  0
EOF
